ply
format ascii 1.0
comment Created by Blender 2.69 (sub 10) - www.blender.org, source file: ''
element vertex 482
property float x
property float y
property float z
property float nx
property float ny
property float nz
element face 512
property list uchar uint vertex_indices
end_header
-0.461940 0.000000 0.191342 -0.924741 0.000000 0.380535
-0.415735 0.000000 0.277785 -0.833338 0.000000 0.552751
-0.407746 0.081106 0.277785 -0.817316 0.162572 0.552751
-0.453064 0.090120 0.191342 -0.906980 0.180395 0.380535
-0.353553 0.000000 0.353553 -0.710135 0.000000 0.704031
-0.277785 0.000000 0.415735 -0.559771 0.000000 0.828639
-0.272447 0.054193 0.415735 -0.548997 0.109195 0.828639
-0.346760 0.068975 0.353553 -0.696493 0.138524 0.704031
-0.097545 0.000000 -0.490393 -0.200964 0.000000 -0.979583
-0.191342 0.000000 -0.461940 -0.387860 0.000000 -0.921690
-0.187665 0.037329 -0.461940 -0.380413 0.075655 -0.921690
-0.095671 0.019030 -0.490393 -0.197089 0.039186 -0.979583
-0.191342 0.000000 0.461940 -0.387860 0.000000 0.921690
-0.097545 0.000000 0.490393 -0.200964 0.000000 0.979583
-0.095671 0.019030 0.490393 -0.197089 0.039186 0.979583
-0.187665 0.037329 0.461940 -0.380413 0.075655 0.921690
-0.277785 0.000000 -0.415735 -0.559771 0.000000 -0.828639
-0.353553 0.000000 -0.353553 -0.710135 0.000000 -0.704031
-0.346760 0.068975 -0.353553 -0.696493 0.138524 -0.704031
-0.272447 0.054193 -0.415735 -0.548997 0.109195 -0.828639
-0.415735 0.000000 -0.277785 -0.833338 0.000000 -0.552751
-0.461940 0.000000 -0.191342 -0.924741 0.000000 -0.380535
-0.453064 0.090120 -0.191342 -0.906980 0.180395 -0.380535
-0.407746 0.081106 -0.277785 -0.817316 0.162572 -0.552751
-0.490393 0.000000 -0.097545 -0.980987 0.000000 -0.193915
-0.500000 0.000000 0.000000 -1.000000 0.000000 0.000000
-0.490393 0.097545 0.000000 -0.980773 0.195074 0.000000
-0.480970 0.095671 -0.097545 -0.962157 0.191382 -0.193915
-0.490393 0.000000 0.097545 -0.980987 0.000000 0.193915
-0.480970 0.095671 0.097545 -0.962157 0.191382 0.193915
-0.384089 0.159095 -0.277785 -0.769890 0.318888 -0.552751
-0.326641 0.135299 -0.353553 -0.656056 0.271737 -0.704031
-0.453064 0.187665 -0.097545 -0.906339 0.375408 -0.193915
-0.426777 0.176777 -0.191342 -0.854366 0.353893 -0.380535
-0.453064 0.187665 0.097545 -0.906339 0.375408 0.193915
-0.461940 0.191342 0.000000 -0.923856 0.382672 0.000000
-0.384089 0.159095 0.277785 -0.769890 0.318888 0.552751
-0.426777 0.176777 0.191342 -0.854366 0.353893 0.380535
-0.256640 0.106304 0.415735 -0.517136 0.214209 0.828639
-0.326641 0.135299 0.353553 -0.656056 0.271737 0.704031
-0.176776 0.073223 -0.461940 -0.358348 0.148412 -0.921690
-0.090120 0.037329 -0.490393 -0.185644 0.076907 -0.979583
-0.090120 0.037329 0.490393 -0.185644 0.076907 0.979583
-0.176777 0.073223 0.461940 -0.358348 0.148412 0.921690
-0.256640 0.106304 -0.415735 -0.517136 0.214209 -0.828639
-0.345671 0.230970 -0.277785 -0.692892 0.462966 -0.552751
-0.293969 0.196424 -0.353553 -0.590442 0.394513 -0.704031
-0.407746 0.272448 -0.097545 -0.815668 0.545000 -0.193915
-0.384089 0.256640 -0.191342 -0.768914 0.513749 -0.380535
-0.407746 0.272448 0.097545 -0.815668 0.545000 0.193915
-0.415735 0.277785 0.000000 -0.831446 0.555559 0.000000
-0.345671 0.230970 0.277785 -0.692892 0.462966 0.552751
-0.384089 0.256640 0.191342 -0.768914 0.513749 0.380535
-0.230970 0.154329 0.415735 -0.465407 0.310984 0.828639
-0.293969 0.196424 0.353553 -0.590442 0.394513 0.704031
-0.159095 0.106304 -0.461940 -0.322489 0.215491 -0.921690
-0.081106 0.054193 -0.490393 -0.167089 0.111637 -0.979583
-0.081106 0.054193 0.490393 -0.167089 0.111637 0.979583
-0.159095 0.106304 0.461940 -0.322489 0.215491 0.921690
-0.230970 0.154329 -0.415735 -0.465407 0.310984 -0.828639
-0.293969 0.293969 -0.277785 -0.589251 0.589251 -0.552751
-0.250000 0.250000 -0.353553 -0.502121 0.502121 -0.704031
-0.346760 0.346760 -0.097545 -0.693655 0.693655 -0.193915
-0.326641 0.326641 -0.191342 -0.653890 0.653890 -0.380535
-0.346760 0.346760 0.097545 -0.693655 0.693655 0.193915
-0.353553 0.353554 0.000000 -0.707083 0.707083 0.000000
-0.293969 0.293969 0.277785 -0.589251 0.589251 0.552751
-0.326641 0.326641 0.191342 -0.653890 0.653890 0.380535
-0.196424 0.196424 0.415735 -0.395795 0.395795 0.828639
-0.250000 0.250000 0.353553 -0.502121 0.502121 0.704031
-0.135299 0.135299 -0.461940 -0.274270 0.274270 -0.921690
-0.068975 0.068975 -0.490393 -0.142094 0.142094 -0.979583
-0.068975 0.068975 0.490393 -0.142094 0.142094 0.979583
-0.135299 0.135299 0.461940 -0.274270 0.274270 0.921690
-0.196424 0.196424 -0.415735 -0.395795 0.395795 -0.828639
-0.230970 0.345671 -0.277785 -0.462966 0.692892 -0.552751
-0.196424 0.293969 -0.353553 -0.394513 0.590442 -0.704031
-0.272447 0.407747 -0.097545 -0.545000 0.815668 -0.193915
-0.256640 0.384089 -0.191342 -0.513749 0.768914 -0.380535
-0.272447 0.407747 0.097545 -0.545000 0.815668 0.193915
-0.277785 0.415735 0.000000 -0.555559 0.831446 0.000000
-0.230970 0.345671 0.277785 -0.462966 0.692892 0.552751
-0.256640 0.384089 0.191342 -0.513749 0.768914 0.380535
-0.154329 0.230970 0.415735 -0.310984 0.465407 0.828639
-0.196424 0.293969 0.353553 -0.394513 0.590442 0.704031
-0.106304 0.159095 -0.461940 -0.215491 0.322489 -0.921690
-0.054193 0.081106 -0.490393 -0.111637 0.167089 -0.979583
-0.054193 0.081106 0.490393 -0.111637 0.167089 0.979583
-0.106304 0.159095 0.461940 -0.215491 0.322489 0.921690
-0.154329 0.230970 -0.415735 -0.310984 0.465407 -0.828639
-0.159095 0.384089 -0.277785 -0.318888 0.769890 -0.552751
-0.135299 0.326641 -0.353553 -0.271737 0.656056 -0.704031
-0.187665 0.453064 -0.097545 -0.375408 0.906339 -0.193915
-0.176776 0.426777 -0.191342 -0.353862 0.854366 -0.380535
-0.187665 0.453064 0.097545 -0.375408 0.906339 0.193915
-0.191341 0.461940 0.000000 -0.382672 0.923856 0.000000
-0.159095 0.384089 0.277785 -0.318888 0.769890 0.552751
-0.176776 0.426777 0.191342 -0.353862 0.854366 0.380535
-0.106304 0.256640 0.415735 -0.214209 0.517136 0.828639
-0.135299 0.326641 0.353553 -0.271737 0.656056 0.704031
-0.073223 0.176777 -0.461940 -0.148412 0.358348 -0.921690
-0.037329 0.090120 -0.490393 -0.076907 0.185644 -0.979583
-0.037329 0.090120 0.490393 -0.076907 0.185644 0.979583
-0.073223 0.176777 0.461940 -0.148412 0.358348 0.921690
-0.106304 0.256640 -0.415735 -0.214209 0.517136 -0.828639
-0.081106 0.407747 -0.277785 -0.162572 0.817316 -0.552751
-0.068975 0.346760 -0.353553 -0.138524 0.696493 -0.704031
-0.095671 0.480970 -0.097545 -0.191382 0.962157 -0.193915
-0.090120 0.453064 -0.191342 -0.180395 0.906980 -0.380535
-0.095671 0.480970 0.097545 -0.191382 0.962157 0.193915
-0.097545 0.490393 0.000000 -0.195074 0.980773 0.000000
-0.081106 0.407747 0.277785 -0.162572 0.817316 0.552751
-0.090120 0.453064 0.191342 -0.180395 0.906980 0.380535
-0.054193 0.272448 0.415735 -0.109195 0.548997 0.828639
-0.068975 0.346760 0.353553 -0.138524 0.696493 0.704031
-0.037329 0.187665 -0.461940 -0.075655 0.380413 -0.921690
-0.019030 0.095671 -0.490393 -0.039186 0.197089 -0.979583
-0.019030 0.095671 0.490393 -0.039186 0.197089 0.979583
-0.037329 0.187665 0.461940 -0.075655 0.380413 0.921690
-0.054193 0.272448 -0.415735 -0.109195 0.548997 -0.828639
0.000000 0.415735 -0.277785 0.000000 0.833338 -0.552751
0.000000 0.353554 -0.353553 0.000000 0.710135 -0.704031
0.000000 0.490393 -0.097545 0.000000 0.980987 -0.193915
0.000000 0.461940 -0.191342 0.000000 0.924741 -0.380535
0.000000 0.490393 0.097545 0.000000 0.980987 0.193915
0.000000 0.500000 0.000000 0.000000 1.000000 0.000000
0.000000 0.415735 0.277785 0.000000 0.833338 0.552751
0.000000 0.461940 0.191342 0.000000 0.924741 0.380535
0.000000 0.277785 0.415735 0.000000 0.559771 0.828639
0.000000 0.353554 0.353553 0.000000 0.710135 0.704031
0.000000 0.191342 -0.461940 0.000000 0.387860 -0.921690
0.000000 0.097545 -0.490393 0.000000 0.200964 -0.979583
0.000000 0.097545 0.490393 0.000000 0.200964 0.979583
0.000000 0.191342 0.461940 0.000000 0.387860 0.921690
0.000000 0.277785 -0.415735 0.000000 0.559771 -0.828639
0.081106 0.407747 -0.277785 0.162572 0.817316 -0.552751
0.068975 0.346760 -0.353553 0.138524 0.696493 -0.704031
0.095671 0.480970 -0.097545 0.191382 0.962157 -0.193915
0.090120 0.453064 -0.191342 0.180395 0.906980 -0.380535
0.095671 0.480970 0.097545 0.191382 0.962157 0.193915
0.097545 0.490393 0.000000 0.195074 0.980773 0.000000
0.081106 0.407747 0.277785 0.162572 0.817316 0.552751
0.090120 0.453064 0.191342 0.180395 0.906980 0.380535
0.054193 0.272448 0.415735 0.109195 0.548997 0.828639
0.068975 0.346760 0.353553 0.138524 0.696493 0.704031
0.037329 0.187665 -0.461940 0.075655 0.380413 -0.921690
0.019030 0.095671 -0.490393 0.039186 0.197089 -0.979583
0.019030 0.095671 0.490393 0.039186 0.197089 0.979583
0.037329 0.187665 0.461940 0.075655 0.380413 0.921690
0.054193 0.272448 -0.415735 0.109195 0.548997 -0.828639
0.159095 0.384089 -0.277785 0.318888 0.769890 -0.552751
0.135299 0.326641 -0.353553 0.271737 0.656056 -0.704031
0.187665 0.453064 -0.097545 0.375408 0.906339 -0.193915
0.176777 0.426777 -0.191342 0.353893 0.854366 -0.380535
0.187665 0.453064 0.097545 0.375408 0.906339 0.193915
0.191342 0.461940 0.000000 0.382672 0.923856 0.000000
0.159095 0.384089 0.277785 0.318888 0.769890 0.552751
0.176777 0.426777 0.191342 0.353893 0.854366 0.380535
0.106304 0.256640 0.415735 0.214209 0.517136 0.828639
0.135299 0.326641 0.353553 0.271737 0.656056 0.704031
0.073224 0.176777 -0.461940 0.148412 0.358348 -0.921690
0.037329 0.090120 -0.490393 0.076907 0.185644 -0.979583
0.037329 0.090120 0.490393 0.076907 0.185644 0.979583
0.073224 0.176777 0.461940 0.148412 0.358348 0.921690
0.106304 0.256640 -0.415735 0.214209 0.517136 -0.828639
0.230970 0.345671 -0.277785 0.462966 0.692892 -0.552751
0.196424 0.293969 -0.353553 0.394513 0.590442 -0.704031
0.272448 0.407747 -0.097545 0.545000 0.815668 -0.193915
0.256640 0.384089 -0.191342 0.513749 0.768914 -0.380535
0.272448 0.407747 0.097545 0.545000 0.815668 0.193915
0.277785 0.415735 0.000000 0.555559 0.831446 0.000000
0.230970 0.345671 0.277785 0.462966 0.692892 0.552751
0.256640 0.384089 0.191342 0.513749 0.768914 0.380535
0.154329 0.230970 0.415735 0.310984 0.465407 0.828639
0.196424 0.293969 0.353553 0.394513 0.590442 0.704031
0.106304 0.159095 -0.461940 0.215491 0.322489 -0.921690
0.054193 0.081106 -0.490393 0.111637 0.167089 -0.979583
0.054194 0.081106 0.490393 0.111637 0.167089 0.979583
0.106304 0.159095 0.461940 0.215491 0.322489 0.921690
0.154329 0.230970 -0.415735 0.310984 0.465407 -0.828639
0.293969 0.293969 -0.277785 0.589251 0.589251 -0.552751
0.250000 0.250000 -0.353553 0.502121 0.502121 -0.704031
0.346760 0.346760 -0.097545 0.693655 0.693655 -0.193915
0.326641 0.326641 -0.191342 0.653890 0.653890 -0.380535
0.346760 0.346760 0.097545 0.693655 0.693655 0.193915
0.353554 0.353553 0.000000 0.707083 0.707083 0.000000
0.293969 0.293969 0.277785 0.589251 0.589251 0.552751
0.326641 0.326641 0.191342 0.653890 0.653890 0.380535
0.196424 0.196424 0.415735 0.395795 0.395795 0.828639
0.250000 0.250000 0.353553 0.502121 0.502121 0.704031
0.135299 0.135299 -0.461940 0.274270 0.274270 -0.921690
0.068975 0.068975 -0.490393 0.142094 0.142094 -0.979583
0.068975 0.068975 0.490393 0.142094 0.142094 0.979583
0.135299 0.135299 0.461940 0.274270 0.274270 0.921690
0.196424 0.196424 -0.415735 0.395795 0.395795 -0.828639
0.345671 0.230970 -0.277785 0.692892 0.462966 -0.552751
0.293969 0.196424 -0.353553 0.590442 0.394513 -0.704031
0.407747 0.272448 -0.097545 0.815668 0.545000 -0.193915
0.384089 0.256640 -0.191342 0.768914 0.513749 -0.380535
0.407747 0.272448 0.097545 0.815668 0.545000 0.193915
0.415735 0.277785 0.000000 0.831446 0.555559 0.000000
0.345671 0.230970 0.277785 0.692892 0.462966 0.552751
0.384089 0.256640 0.191342 0.768914 0.513749 0.380535
0.230970 0.154329 0.415735 0.465407 0.310984 0.828639
0.293969 0.196424 0.353553 0.590442 0.394513 0.704031
0.159095 0.106304 -0.461940 0.322489 0.215491 -0.921690
0.081106 0.054193 -0.490393 0.167089 0.111637 -0.979583
0.081106 0.054193 0.490393 0.167089 0.111637 0.979583
0.159095 0.106304 0.461940 0.322489 0.215491 0.921690
0.230970 0.154329 -0.415735 0.465407 0.310984 -0.828639
0.384089 0.159095 -0.277785 0.769890 0.318888 -0.552751
0.326641 0.135299 -0.353553 0.656056 0.271737 -0.704031
0.453064 0.187665 -0.097545 0.906339 0.375408 -0.193915
0.426777 0.176777 -0.191342 0.854366 0.353862 -0.380535
0.453064 0.187665 0.097545 0.906339 0.375408 0.193915
0.461940 0.191342 0.000000 0.923856 0.382672 0.000000
0.384089 0.159095 0.277785 0.769890 0.318888 0.552751
0.426777 0.176777 0.191342 0.854366 0.353862 0.380535
0.256640 0.106304 0.415735 0.517136 0.214209 0.828639
0.326641 0.135299 0.353553 0.656056 0.271737 0.704031
0.176777 0.073223 -0.461940 0.358348 0.148412 -0.921690
0.090120 0.037329 -0.490393 0.185644 0.076907 -0.979583
0.090120 0.037329 0.490393 0.185644 0.076907 0.979583
0.176777 0.073223 0.461940 0.358348 0.148412 0.921690
0.256640 0.106304 -0.415735 0.517136 0.214209 -0.828639
0.407747 0.081106 -0.277785 0.817316 0.162572 -0.552751
0.346760 0.068975 -0.353553 0.696493 0.138524 -0.704031
0.480970 0.095671 -0.097545 0.962157 0.191382 -0.193915
0.453064 0.090120 -0.191342 0.906980 0.180395 -0.380535
0.480970 0.095671 0.097545 0.962157 0.191382 0.193915
0.490393 0.097545 0.000000 0.980773 0.195074 0.000000
0.407747 0.081106 0.277785 0.817316 0.162572 0.552751
0.453064 0.090120 0.191342 0.906980 0.180395 0.380535
0.272448 0.054193 0.415735 0.548997 0.109195 0.828639
0.346760 0.068975 0.353553 0.696493 0.138524 0.704031
0.187665 0.037329 -0.461940 0.380413 0.075655 -0.921690
0.095671 0.019030 -0.490393 0.197089 0.039186 -0.979583
0.095671 0.019030 0.490393 0.197089 0.039186 0.979583
0.187665 0.037329 0.461940 0.380413 0.075655 0.921690
0.272448 0.054193 -0.415735 0.548997 0.109195 -0.828639
0.415735 0.000000 -0.277785 0.833338 0.000000 -0.552751
0.353554 0.000000 -0.353553 0.710135 0.000000 -0.704031
0.490393 0.000000 -0.097545 0.980987 0.000000 -0.193915
0.461940 0.000000 -0.191342 0.924741 0.000000 -0.380535
0.490393 0.000000 0.097545 0.980987 0.000000 0.193915
0.500000 0.000000 0.000000 1.000000 0.000000 0.000000
0.415735 0.000000 0.277785 0.833338 0.000000 0.552751
0.461940 0.000000 0.191342 0.924741 0.000000 0.380535
0.277785 0.000000 0.415735 0.559771 0.000000 0.828639
0.353554 0.000000 0.353553 0.710135 0.000000 0.704031
0.191342 0.000000 -0.461940 0.387860 0.000000 -0.921690
0.097545 0.000000 -0.490393 0.200964 0.000000 -0.979583
0.097546 0.000000 0.490393 0.200964 0.000000 0.979583
0.191342 0.000000 0.461940 0.387860 0.000000 0.921690
0.277785 0.000000 -0.415735 0.559771 0.000000 -0.828639
0.407747 -0.081106 -0.277785 0.817316 -0.162572 -0.552751
0.346760 -0.068975 -0.353553 0.696493 -0.138524 -0.704031
0.480970 -0.095671 -0.097545 0.962157 -0.191382 -0.193915
0.453064 -0.090120 -0.191342 0.906980 -0.180395 -0.380535
0.480970 -0.095671 0.097545 0.962157 -0.191382 0.193915
0.490393 -0.097545 0.000000 0.980773 -0.195074 0.000000
0.407747 -0.081106 0.277785 0.817316 -0.162572 0.552751
0.453064 -0.090120 0.191342 0.906980 -0.180395 0.380535
0.272448 -0.054193 0.415735 0.548997 -0.109195 0.828639
0.346760 -0.068975 0.353553 0.696493 -0.138524 0.704031
0.187665 -0.037329 -0.461940 0.380413 -0.075655 -0.921690
0.095671 -0.019030 -0.490393 0.197089 -0.039186 -0.979583
0.095671 -0.019030 0.490393 0.197089 -0.039186 0.979583
0.187665 -0.037329 0.461940 0.380413 -0.075655 0.921690
0.272448 -0.054193 -0.415735 0.548997 -0.109195 -0.828639
0.384089 -0.159095 -0.277785 0.769890 -0.318888 -0.552751
0.326641 -0.135299 -0.353553 0.656056 -0.271737 -0.704031
0.453064 -0.187665 -0.097545 0.906339 -0.375408 -0.193915
0.426777 -0.176777 -0.191342 0.854366 -0.353862 -0.380535
0.453064 -0.187665 0.097545 0.906339 -0.375408 0.193915
0.461940 -0.191342 0.000000 0.923856 -0.382672 0.000000
0.384089 -0.159095 0.277785 0.769890 -0.318888 0.552751
0.426777 -0.176777 0.191342 0.854366 -0.353862 0.380535
0.256640 -0.106304 0.415735 0.517136 -0.214209 0.828639
0.326641 -0.135299 0.353553 0.656056 -0.271737 0.704031
0.176777 -0.073223 -0.461940 0.358348 -0.148412 -0.921690
0.090120 -0.037329 -0.490393 0.185644 -0.076907 -0.979583
0.090120 -0.037329 0.490393 0.185644 -0.076907 0.979583
0.176777 -0.073223 0.461940 0.358348 -0.148412 0.921690
0.256640 -0.106304 -0.415735 0.517136 -0.214209 -0.828639
0.345671 -0.230970 -0.277785 0.692892 -0.462966 -0.552751
0.293969 -0.196424 -0.353553 0.590442 -0.394513 -0.704031
0.407747 -0.272447 -0.097545 0.815668 -0.545000 -0.193915
0.384089 -0.256640 -0.191342 0.768914 -0.513749 -0.380535
0.407747 -0.272447 0.097545 0.815668 -0.545000 0.193915
0.415735 -0.277785 0.000000 0.831446 -0.555559 0.000000
0.345671 -0.230970 0.277785 0.692892 -0.462966 0.552751
0.384089 -0.256640 0.191342 0.768914 -0.513749 0.380535
0.230970 -0.154329 0.415735 0.465407 -0.310984 0.828639
0.293969 -0.196424 0.353553 0.590442 -0.394513 0.704031
0.159095 -0.106304 -0.461940 0.322489 -0.215491 -0.921690
0.081106 -0.054193 -0.490393 0.167089 -0.111637 -0.979583
0.081106 -0.054193 0.490393 0.167089 -0.111637 0.979583
0.159095 -0.106304 0.461940 0.322489 -0.215491 0.921690
0.230970 -0.154329 -0.415735 0.465407 -0.310984 -0.828639
0.293969 -0.293969 -0.277785 0.589251 -0.589251 -0.552751
0.250000 -0.250000 -0.353553 0.502121 -0.502121 -0.704031
0.346760 -0.346760 -0.097545 0.693655 -0.693655 -0.193915
0.326641 -0.326641 -0.191342 0.653890 -0.653890 -0.380535
0.346760 -0.346760 0.097545 0.693655 -0.693655 0.193915
0.353554 -0.353553 0.000000 0.707083 -0.707083 0.000000
0.293969 -0.293969 0.277785 0.589251 -0.589251 0.552751
0.326641 -0.326641 0.191342 0.653890 -0.653890 0.380535
0.196424 -0.196424 0.415735 0.395795 -0.395795 0.828639
0.250000 -0.250000 0.353553 0.502121 -0.502121 0.704031
0.135299 -0.135299 -0.461940 0.274270 -0.274270 -0.921690
0.068975 -0.068975 -0.490393 0.142094 -0.142094 -0.979583
0.068975 -0.068975 0.490393 0.142094 -0.142094 0.979583
0.135299 -0.135299 0.461940 0.274270 -0.274270 0.921690
0.196424 -0.196424 -0.415735 0.395795 -0.395795 -0.828639
0.230970 -0.345671 -0.277785 0.462966 -0.692892 -0.552751
0.196424 -0.293969 -0.353553 0.394513 -0.590442 -0.704031
0.272448 -0.407746 -0.097545 0.545000 -0.815668 -0.193915
0.256640 -0.384089 -0.191342 0.513749 -0.768914 -0.380535
0.272448 -0.407746 0.097545 0.545000 -0.815668 0.193915
0.277785 -0.415735 0.000000 0.555559 -0.831446 0.000000
0.230970 -0.345671 0.277785 0.462966 -0.692892 0.552751
0.256640 -0.384089 0.191342 0.513749 -0.768914 0.380535
0.154329 -0.230970 0.415735 0.310984 -0.465407 0.828639
0.196424 -0.293969 0.353553 0.394513 -0.590442 0.704031
0.106304 -0.159095 -0.461940 0.215491 -0.322489 -0.921690
0.054193 -0.081106 -0.490393 0.111637 -0.167089 -0.979583
0.054193 -0.081106 0.490393 0.111637 -0.167089 0.979583
0.106304 -0.159095 0.461940 0.215491 -0.322489 0.921690
0.154329 -0.230970 -0.415735 0.310984 -0.465407 -0.828639
0.159095 -0.384089 -0.277785 0.318888 -0.769890 -0.552751
0.135299 -0.326641 -0.353553 0.271737 -0.656056 -0.704031
0.187665 -0.453064 -0.097545 0.375408 -0.906339 -0.193915
0.176777 -0.426777 -0.191342 0.353862 -0.854366 -0.380535
0.187665 -0.453064 0.097545 0.375408 -0.906339 0.193915
0.191342 -0.461940 0.000000 0.382672 -0.923856 0.000000
0.159095 -0.384089 0.277785 0.318888 -0.769890 0.552751
0.176777 -0.426777 0.191342 0.353862 -0.854366 0.380535
0.106304 -0.256640 0.415735 0.214209 -0.517136 0.828639
0.135299 -0.326641 0.353553 0.271737 -0.656056 0.704031
0.073224 -0.176777 -0.461940 0.148412 -0.358348 -0.921690
0.037329 -0.090120 -0.490393 0.076907 -0.185644 -0.979583
0.037329 -0.090120 0.490393 0.076876 -0.185644 0.979583
0.073224 -0.176777 0.461940 0.148412 -0.358348 0.921690
0.106304 -0.256640 -0.415735 0.214209 -0.517136 -0.828639
0.081106 -0.407746 -0.277785 0.162572 -0.817316 -0.552751
0.068975 -0.346760 -0.353553 0.138524 -0.696493 -0.704031
0.095671 -0.480970 -0.097545 0.191382 -0.962157 -0.193915
0.090120 -0.453064 -0.191342 0.180395 -0.906980 -0.380535
0.095671 -0.480970 0.097545 0.191382 -0.962157 0.193915
0.097545 -0.490393 0.000000 0.195074 -0.980773 0.000000
0.081106 -0.407746 0.277785 0.162572 -0.817316 0.552751
0.090120 -0.453064 0.191342 0.180395 -0.906980 0.380535
0.054193 -0.272448 0.415735 0.109195 -0.548997 0.828639
0.068975 -0.346760 0.353553 0.138524 -0.696493 0.704031
0.037329 -0.187665 -0.461940 0.075655 -0.380413 -0.921690
0.019030 -0.095671 -0.490393 0.039186 -0.197089 -0.979583
0.019030 -0.095671 0.490393 0.039186 -0.197089 0.979583
0.037329 -0.187665 0.461940 0.075655 -0.380413 0.921690
0.054193 -0.272447 -0.415735 0.109195 -0.548997 -0.828639
0.000000 -0.415735 -0.277785 0.000000 -0.833338 -0.552751
0.000000 -0.353553 -0.353553 0.000000 -0.710135 -0.704031
0.000000 -0.490392 -0.097545 0.000000 -0.980987 -0.193915
0.000000 -0.461940 -0.191342 0.000000 -0.924741 -0.380535
0.000000 -0.490392 0.097545 0.000000 -0.980987 0.193915
0.000000 -0.500000 0.000000 0.000000 -1.000000 0.000000
0.000000 -0.415735 0.277785 0.000000 -0.833338 0.552751
0.000000 -0.461940 0.191342 0.000000 -0.924741 0.380535
0.000000 -0.277785 0.415735 0.000000 -0.559771 0.828639
0.000000 -0.353553 0.353553 0.000000 -0.710135 0.704031
0.000000 -0.191342 -0.461940 0.000000 -0.387860 -0.921690
0.000000 -0.097545 -0.490393 0.000000 -0.200964 -0.979583
0.000000 -0.097545 0.490393 0.000000 -0.200964 0.979583
0.000000 -0.191342 0.461940 0.000000 -0.387860 0.921690
0.000000 -0.277785 -0.415735 0.000000 -0.559771 -0.828639
-0.081106 -0.407746 -0.277785 -0.162572 -0.817316 -0.552751
-0.068975 -0.346760 -0.353553 -0.138524 -0.696493 -0.704031
-0.095671 -0.480970 -0.097545 -0.191382 -0.962157 -0.193915
-0.090120 -0.453064 -0.191342 -0.180395 -0.906980 -0.380535
-0.095671 -0.480970 0.097545 -0.191382 -0.962157 0.193915
-0.097545 -0.490392 0.000000 -0.195074 -0.980773 0.000000
-0.081106 -0.407746 0.277785 -0.162572 -0.817316 0.552751
-0.090120 -0.453064 0.191342 -0.180395 -0.906980 0.380535
-0.054193 -0.272447 0.415735 -0.109195 -0.548997 0.828639
-0.068975 -0.346760 0.353553 -0.138524 -0.696493 0.704031
-0.037329 -0.187665 -0.461940 -0.075655 -0.380413 -0.921690
-0.019030 -0.095671 -0.490393 -0.039186 -0.197089 -0.979583
-0.019030 -0.095671 0.490393 -0.039186 -0.197089 0.979583
-0.037329 -0.187665 0.461940 -0.075655 -0.380413 0.921690
-0.054193 -0.272447 -0.415735 -0.109195 -0.548997 -0.828639
-0.159095 -0.384089 -0.277785 -0.318888 -0.769890 -0.552751
-0.135299 -0.326641 -0.353553 -0.271737 -0.656056 -0.704031
-0.187665 -0.453063 -0.097545 -0.375408 -0.906339 -0.193915
-0.176776 -0.426777 -0.191342 -0.353893 -0.854366 -0.380535
-0.187665 -0.453063 0.097545 -0.375408 -0.906339 0.193915
-0.191341 -0.461940 0.000000 -0.382672 -0.923856 0.000000
-0.159095 -0.384089 0.277785 -0.318888 -0.769890 0.552751
-0.176776 -0.426777 0.191342 -0.353893 -0.854366 0.380535
-0.106304 -0.256640 0.415735 -0.214209 -0.517136 0.828639
-0.135299 -0.326641 0.353553 -0.271737 -0.656056 0.704031
-0.073223 -0.176777 -0.461940 -0.148412 -0.358348 -0.921690
-0.037329 -0.090120 -0.490393 -0.076907 -0.185644 -0.979583
-0.037329 -0.090120 0.490393 -0.076876 -0.185644 0.979583
-0.073223 -0.176777 0.461940 -0.148412 -0.358348 0.921690
-0.106303 -0.256640 -0.415735 -0.214209 -0.517136 -0.828639
-0.230970 -0.345671 -0.277785 -0.462966 -0.692892 -0.552751
-0.196424 -0.293969 -0.353553 -0.394513 -0.590442 -0.704031
-0.272447 -0.407746 -0.097545 -0.545000 -0.815668 -0.193915
-0.256640 -0.384089 -0.191342 -0.513749 -0.768914 -0.380535
-0.272447 -0.407746 0.097545 -0.545000 -0.815668 0.193915
-0.277785 -0.415735 0.000000 -0.555559 -0.831446 0.000000
-0.230970 -0.345671 0.277785 -0.462966 -0.692892 0.552751
-0.256640 -0.384089 0.191342 -0.513749 -0.768914 0.380535
-0.154329 -0.230970 0.415735 -0.310984 -0.465407 0.828639
-0.196424 -0.293969 0.353553 -0.394513 -0.590442 0.704031
-0.106303 -0.159095 -0.461940 -0.215491 -0.322489 -0.921690
-0.054193 -0.081106 -0.490393 -0.111637 -0.167089 -0.979583
-0.054193 -0.081106 0.490393 -0.111637 -0.167089 0.979583
-0.106303 -0.159095 0.461940 -0.215491 -0.322489 0.921690
-0.154329 -0.230970 -0.415735 -0.310984 -0.465407 -0.828639
-0.293969 -0.293969 -0.277785 -0.589251 -0.589251 -0.552751
-0.250000 -0.250000 -0.353553 -0.502121 -0.502121 -0.704031
-0.346760 -0.346760 -0.097545 -0.693655 -0.693655 -0.193915
-0.326640 -0.326641 -0.191342 -0.653890 -0.653890 -0.380535
-0.346760 -0.346760 0.097545 -0.693655 -0.693655 0.193915
-0.353553 -0.353553 0.000000 -0.707083 -0.707083 0.000000
-0.293969 -0.293969 0.277785 -0.589251 -0.589251 0.552751
-0.326640 -0.326641 0.191342 -0.653890 -0.653890 0.380535
-0.196423 -0.196424 0.415735 -0.395795 -0.395795 0.828639
-0.250000 -0.250000 0.353553 -0.502121 -0.502121 0.704031
-0.135299 -0.135299 -0.461940 -0.274270 -0.274270 -0.921690
-0.068975 -0.068975 -0.490393 -0.142094 -0.142094 -0.979583
-0.068975 -0.068975 0.490393 -0.142094 -0.142094 0.979583
-0.135299 -0.135299 0.461940 -0.274270 -0.274270 0.921690
-0.196423 -0.196424 -0.415735 -0.395795 -0.395795 -0.828639
-0.345670 -0.230970 -0.277785 -0.692892 -0.462966 -0.552751
-0.293969 -0.196424 -0.353553 -0.590442 -0.394513 -0.704031
-0.407746 -0.272447 -0.097545 -0.815668 -0.545000 -0.193915
-0.384089 -0.256640 -0.191342 -0.768914 -0.513749 -0.380535
-0.407746 -0.272447 0.097545 -0.815668 -0.545000 0.193915
-0.415734 -0.277785 0.000000 -0.831446 -0.555559 0.000000
-0.345670 -0.230970 0.277785 -0.692892 -0.462966 0.552751
-0.384089 -0.256640 0.191342 -0.768914 -0.513749 0.380535
-0.230970 -0.154329 0.415735 -0.465407 -0.310984 0.828639
-0.293969 -0.196424 0.353553 -0.590442 -0.394513 0.704031
-0.159094 -0.106304 -0.461940 -0.322489 -0.215491 -0.921690
-0.081106 -0.054193 -0.490393 -0.167089 -0.111637 -0.979583
-0.081106 -0.054193 0.490393 -0.167089 -0.111637 0.979583
-0.159095 -0.106304 0.461940 -0.322489 -0.215491 0.921690
-0.230970 -0.154329 -0.415735 -0.465407 -0.310984 -0.828639
-0.384088 -0.159095 -0.277785 -0.769890 -0.318888 -0.552751
-0.326640 -0.135299 -0.353553 -0.656056 -0.271737 -0.704031
-0.453063 -0.187665 -0.097545 -0.906339 -0.375408 -0.193915
-0.426776 -0.176777 -0.191342 -0.854366 -0.353862 -0.380535
-0.453063 -0.187665 0.097545 -0.906339 -0.375408 0.193915
-0.461939 -0.191341 0.000000 -0.923856 -0.382672 0.000000
-0.384088 -0.159095 0.277785 -0.769890 -0.318888 0.552751
-0.426776 -0.176777 0.191342 -0.854366 -0.353862 0.380535
-0.256640 -0.106304 0.415735 -0.517136 -0.214209 0.828639
-0.326640 -0.135299 0.353553 -0.656056 -0.271737 0.704031
-0.176776 -0.073223 -0.461940 -0.358348 -0.148412 -0.921690
-0.090120 -0.037329 -0.490393 -0.185644 -0.076907 -0.979583
-0.090120 -0.037329 0.490393 -0.185644 -0.076907 0.979583
-0.176776 -0.073223 0.461940 -0.358348 -0.148412 0.921690
-0.256640 -0.106304 -0.415735 -0.517136 -0.214209 -0.828639
-0.407746 -0.081106 -0.277785 -0.817316 -0.162572 -0.552751
-0.346760 -0.068975 -0.353553 -0.696493 -0.138524 -0.704031
-0.480969 -0.095671 -0.097545 -0.962157 -0.191382 -0.193915
-0.453063 -0.090120 -0.191342 -0.906980 -0.180395 -0.380535
-0.480969 -0.095671 0.097545 -0.962157 -0.191382 0.193915
-0.490392 -0.097545 0.000000 -0.980773 -0.195074 0.000000
-0.407746 -0.081106 0.277785 -0.817316 -0.162572 0.552751
-0.453063 -0.090120 0.191342 -0.906980 -0.180395 0.380535
-0.272447 -0.054193 0.415735 -0.548997 -0.109195 0.828639
-0.346760 -0.068975 0.353553 -0.696493 -0.138524 0.704031
-0.187665 -0.037329 -0.461940 -0.380413 -0.075655 -0.921690
-0.095671 -0.019030 -0.490393 -0.197089 -0.039186 -0.979583
-0.095671 -0.019030 0.490393 -0.197089 -0.039186 0.979583
-0.187665 -0.037329 0.461940 -0.380413 -0.075655 0.921690
-0.272447 -0.054193 -0.415735 -0.548997 -0.109195 -0.828639
0.000000 0.000000 -0.500000 0.000000 0.000000 -1.000000
0.000000 -0.000000 0.500000 0.000000 0.000000 1.000000
4 0 1 2 3
4 4 5 6 7
4 8 9 10 11
4 12 13 14 15
4 16 17 18 19
4 20 21 22 23
4 24 25 26 27
4 28 0 3 29
4 1 4 7 2
4 5 12 15 6
4 9 16 19 10
4 17 20 23 18
4 21 24 27 22
4 25 28 29 26
4 18 23 30 31
4 22 27 32 33
4 26 29 34 35
4 3 2 36 37
4 7 6 38 39
4 11 10 40 41
4 15 14 42 43
4 19 18 31 44
4 23 22 33 30
4 27 26 35 32
4 29 3 37 34
4 2 7 39 36
4 6 15 43 38
4 10 19 44 40
4 31 30 45 46
4 33 32 47 48
4 35 34 49 50
4 37 36 51 52
4 39 38 53 54
4 41 40 55 56
4 43 42 57 58
4 44 31 46 59
4 30 33 48 45
4 32 35 50 47
4 34 37 52 49
4 36 39 54 51
4 38 43 58 53
4 40 44 59 55
4 46 45 60 61
4 48 47 62 63
4 50 49 64 65
4 52 51 66 67
4 54 53 68 69
4 56 55 70 71
4 58 57 72 73
4 59 46 61 74
4 45 48 63 60
4 47 50 65 62
4 49 52 67 64
4 51 54 69 66
4 53 58 73 68
4 55 59 74 70
4 61 60 75 76
4 63 62 77 78
4 65 64 79 80
4 67 66 81 82
4 69 68 83 84
4 71 70 85 86
4 73 72 87 88
4 74 61 76 89
4 60 63 78 75
4 62 65 80 77
4 64 67 82 79
4 66 69 84 81
4 68 73 88 83
4 70 74 89 85
4 76 75 90 91
4 78 77 92 93
4 80 79 94 95
4 82 81 96 97
4 84 83 98 99
4 86 85 100 101
4 88 87 102 103
4 89 76 91 104
4 75 78 93 90
4 77 80 95 92
4 79 82 97 94
4 81 84 99 96
4 83 88 103 98
4 85 89 104 100
4 91 90 105 106
4 93 92 107 108
4 95 94 109 110
4 97 96 111 112
4 99 98 113 114
4 101 100 115 116
4 103 102 117 118
4 104 91 106 119
4 90 93 108 105
4 92 95 110 107
4 94 97 112 109
4 96 99 114 111
4 98 103 118 113
4 100 104 119 115
4 106 105 120 121
4 108 107 122 123
4 110 109 124 125
4 112 111 126 127
4 114 113 128 129
4 116 115 130 131
4 118 117 132 133
4 119 106 121 134
4 105 108 123 120
4 107 110 125 122
4 109 112 127 124
4 111 114 129 126
4 113 118 133 128
4 115 119 134 130
4 121 120 135 136
4 123 122 137 138
4 125 124 139 140
4 127 126 141 142
4 129 128 143 144
4 131 130 145 146
4 133 132 147 148
4 134 121 136 149
4 120 123 138 135
4 122 125 140 137
4 124 127 142 139
4 126 129 144 141
4 128 133 148 143
4 130 134 149 145
4 136 135 150 151
4 138 137 152 153
4 140 139 154 155
4 142 141 156 157
4 144 143 158 159
4 146 145 160 161
4 148 147 162 163
4 149 136 151 164
4 135 138 153 150
4 137 140 155 152
4 139 142 157 154
4 141 144 159 156
4 143 148 163 158
4 145 149 164 160
4 151 150 165 166
4 153 152 167 168
4 155 154 169 170
4 157 156 171 172
4 159 158 173 174
4 161 160 175 176
4 163 162 177 178
4 164 151 166 179
4 150 153 168 165
4 152 155 170 167
4 154 157 172 169
4 156 159 174 171
4 158 163 178 173
4 160 164 179 175
4 166 165 180 181
4 168 167 182 183
4 170 169 184 185
4 172 171 186 187
4 174 173 188 189
4 176 175 190 191
4 178 177 192 193
4 179 166 181 194
4 165 168 183 180
4 167 170 185 182
4 169 172 187 184
4 171 174 189 186
4 173 178 193 188
4 175 179 194 190
4 181 180 195 196
4 183 182 197 198
4 185 184 199 200
4 187 186 201 202
4 189 188 203 204
4 191 190 205 206
4 193 192 207 208
4 194 181 196 209
4 180 183 198 195
4 182 185 200 197
4 184 187 202 199
4 186 189 204 201
4 188 193 208 203
4 190 194 209 205
4 196 195 210 211
4 198 197 212 213
4 200 199 214 215
4 202 201 216 217
4 204 203 218 219
4 206 205 220 221
4 208 207 222 223
4 209 196 211 224
4 195 198 213 210
4 197 200 215 212
4 199 202 217 214
4 201 204 219 216
4 203 208 223 218
4 205 209 224 220
4 211 210 225 226
4 213 212 227 228
4 215 214 229 230
4 217 216 231 232
4 219 218 233 234
4 221 220 235 236
4 223 222 237 238
4 224 211 226 239
4 210 213 228 225
4 212 215 230 227
4 214 217 232 229
4 216 219 234 231
4 218 223 238 233
4 220 224 239 235
4 226 225 240 241
4 228 227 242 243
4 230 229 244 245
4 232 231 246 247
4 234 233 248 249
4 236 235 250 251
4 238 237 252 253
4 239 226 241 254
4 225 228 243 240
4 227 230 245 242
4 229 232 247 244
4 231 234 249 246
4 233 238 253 248
4 235 239 254 250
4 241 240 255 256
4 243 242 257 258
4 245 244 259 260
4 247 246 261 262
4 249 248 263 264
4 251 250 265 266
4 253 252 267 268
4 254 241 256 269
4 240 243 258 255
4 242 245 260 257
4 244 247 262 259
4 246 249 264 261
4 248 253 268 263
4 250 254 269 265
4 256 255 270 271
4 258 257 272 273
4 260 259 274 275
4 262 261 276 277
4 264 263 278 279
4 266 265 280 281
4 268 267 282 283
4 269 256 271 284
4 255 258 273 270
4 257 260 275 272
4 259 262 277 274
4 261 264 279 276
4 263 268 283 278
4 265 269 284 280
4 271 270 285 286
4 273 272 287 288
4 275 274 289 290
4 277 276 291 292
4 279 278 293 294
4 281 280 295 296
4 283 282 297 298
4 284 271 286 299
4 270 273 288 285
4 272 275 290 287
4 274 277 292 289
4 276 279 294 291
4 278 283 298 293
4 280 284 299 295
4 286 285 300 301
4 288 287 302 303
4 290 289 304 305
4 292 291 306 307
4 294 293 308 309
4 296 295 310 311
4 298 297 312 313
4 299 286 301 314
4 285 288 303 300
4 287 290 305 302
4 289 292 307 304
4 291 294 309 306
4 293 298 313 308
4 295 299 314 310
4 301 300 315 316
4 303 302 317 318
4 305 304 319 320
4 307 306 321 322
4 309 308 323 324
4 311 310 325 326
4 313 312 327 328
4 314 301 316 329
4 300 303 318 315
4 302 305 320 317
4 304 307 322 319
4 306 309 324 321
4 308 313 328 323
4 310 314 329 325
4 316 315 330 331
4 318 317 332 333
4 320 319 334 335
4 322 321 336 337
4 324 323 338 339
4 326 325 340 341
4 328 327 342 343
4 329 316 331 344
4 315 318 333 330
4 317 320 335 332
4 319 322 337 334
4 321 324 339 336
4 323 328 343 338
4 325 329 344 340
4 331 330 345 346
4 333 332 347 348
4 335 334 349 350
4 337 336 351 352
4 339 338 353 354
4 341 340 355 356
4 343 342 357 358
4 344 331 346 359
4 330 333 348 345
4 332 335 350 347
4 334 337 352 349
4 336 339 354 351
4 338 343 358 353
4 340 344 359 355
4 346 345 360 361
4 348 347 362 363
4 350 349 364 365
4 352 351 366 367
4 354 353 368 369
4 356 355 370 371
4 358 357 372 373
4 359 346 361 374
4 345 348 363 360
4 347 350 365 362
4 349 352 367 364
4 351 354 369 366
4 353 358 373 368
4 355 359 374 370
4 361 360 375 376
4 363 362 377 378
4 365 364 379 380
4 367 366 381 382
4 369 368 383 384
4 371 370 385 386
4 373 372 387 388
4 374 361 376 389
4 360 363 378 375
4 362 365 380 377
4 364 367 382 379
4 366 369 384 381
4 368 373 388 383
4 370 374 389 385
4 376 375 390 391
4 378 377 392 393
4 380 379 394 395
4 382 381 396 397
4 384 383 398 399
4 386 385 400 401
4 388 387 402 403
4 389 376 391 404
4 375 378 393 390
4 377 380 395 392
4 379 382 397 394
4 381 384 399 396
4 383 388 403 398
4 385 389 404 400
4 391 390 405 406
4 393 392 407 408
4 395 394 409 410
4 397 396 411 412
4 399 398 413 414
4 401 400 415 416
4 403 402 417 418
4 404 391 406 419
4 390 393 408 405
4 392 395 410 407
4 394 397 412 409
4 396 399 414 411
4 398 403 418 413
4 400 404 419 415
4 406 405 420 421
4 408 407 422 423
4 410 409 424 425
4 412 411 426 427
4 414 413 428 429
4 416 415 430 431
4 418 417 432 433
4 419 406 421 434
4 405 408 423 420
4 407 410 425 422
4 409 412 427 424
4 411 414 429 426
4 413 418 433 428
4 415 419 434 430
4 421 420 435 436
4 423 422 437 438
4 425 424 439 440
4 427 426 441 442
4 429 428 443 444
4 431 430 445 446
4 433 432 447 448
4 434 421 436 449
4 420 423 438 435
4 422 425 440 437
4 424 427 442 439
4 426 429 444 441
4 428 433 448 443
4 430 434 449 445
4 436 435 450 451
4 438 437 452 453
4 440 439 454 455
4 442 441 456 457
4 444 443 458 459
4 446 445 460 461
4 448 447 462 463
4 449 436 451 464
4 435 438 453 450
4 437 440 455 452
4 439 442 457 454
4 441 444 459 456
4 443 448 463 458
4 445 449 464 460
4 451 450 465 466
4 453 452 467 468
4 455 454 469 470
4 457 456 471 472
4 459 458 473 474
4 461 460 475 476
4 463 462 477 478
4 464 451 466 479
4 450 453 468 465
4 452 455 470 467
4 454 457 472 469
4 456 459 474 471
4 458 463 478 473
4 460 464 479 475
3 480 8 11
3 13 481 14
3 14 481 42
3 480 11 41
3 42 481 57
3 480 41 56
3 57 481 72
3 480 56 71
3 72 481 87
3 480 71 86
3 87 481 102
3 480 86 101
3 102 481 117
3 480 101 116
3 117 481 132
3 480 116 131
3 132 481 147
3 480 131 146
3 147 481 162
3 480 146 161
3 162 481 177
3 480 161 176
3 177 481 192
3 480 176 191
3 192 481 207
3 480 191 206
3 207 481 222
3 480 206 221
3 222 481 237
3 480 221 236
3 237 481 252
3 480 236 251
3 252 481 267
3 480 251 266
3 267 481 282
3 480 266 281
3 282 481 297
3 480 281 296
3 297 481 312
3 480 296 311
3 312 481 327
3 480 311 326
3 327 481 342
3 480 326 341
3 342 481 357
3 480 341 356
3 357 481 372
3 480 356 371
3 372 481 387
3 480 371 386
3 387 481 402
3 480 386 401
3 402 481 417
3 480 401 416
3 417 481 432
3 480 416 431
3 432 481 447
3 480 431 446
3 447 481 462
3 480 446 461
3 462 481 477
3 480 461 476
3 477 481 13
4 466 465 20 17
4 468 467 24 21
4 470 469 28 25
4 472 471 1 0
4 474 473 5 4
4 476 475 9 8
4 13 12 478 477
4 479 466 17 16
4 465 468 21 20
4 467 470 25 24
4 469 472 0 28
4 471 474 4 1
3 480 476 8
4 473 478 12 5
4 475 479 16 9
