ply
format ascii 1.0
comment Created by Blender 2.69 (sub 10) - www.blender.org, source file: ''
element vertex 50
property float x
property float y
property float z
property float nx
property float ny
property float nz
property float s
property float t
element face 13
property list uchar uint vertex_indices
end_header
1.000000 1.000000 -1.000000 0.000000 -0.000000 1.000000 0.334154 0.674088
-1.000000 1.000000 -1.000000 0.000000 -0.000000 1.000000 0.233576 0.674089
-1.000000 -1.000000 -1.000000 0.000000 -0.000000 1.000000 0.233576 0.573511
1.000000 -1.000000 -1.000000 0.000000 -0.000000 1.000000 0.334154 0.573511
0.317431 1.000000 -0.317431 -1.000000 -0.000000 0.000000 0.596051 0.585689
0.317431 1.000000 0.317431 -1.000000 -0.000000 0.000000 0.596051 0.667499
0.317431 1.267778 0.317431 -1.000000 -0.000000 0.000000 0.561544 0.667499
0.317431 1.267778 -0.317431 -1.000000 -0.000000 0.000000 0.561544 0.585689
1.000000 1.000000 -1.000000 -1.000000 0.000000 -0.000000 0.194721 0.127167
1.000000 -1.000000 -1.000000 -1.000000 0.000000 -0.000000 0.316629 0.127167
0.999999 -1.000001 1.000000 -1.000000 0.000000 -0.000000 0.316629 0.249076
1.000000 0.999999 1.000000 -1.000000 0.000000 -0.000000 0.194721 0.249076
1.000000 -1.000000 -1.000000 0.000000 1.000000 0.000000 0.144580 0.629820
-1.000000 -1.000000 -1.000000 0.000000 1.000000 0.000000 0.144580 0.726357
-1.000000 -1.000000 1.000000 0.000000 1.000000 0.000000 0.048043 0.726357
0.999999 -1.000001 1.000000 0.000000 1.000000 0.000000 0.048043 0.629820
-1.000000 -1.000000 -1.000000 1.000000 0.000000 0.000000 0.041779 0.125334
-1.000000 1.000000 -1.000000 1.000000 0.000000 0.000000 0.166843 0.125334
-1.000000 1.000000 1.000000 1.000000 0.000000 0.000000 0.166843 0.250397
-1.000000 -1.000000 1.000000 1.000000 0.000000 0.000000 0.041779 0.250397
1.000000 1.000000 -1.000000 -0.000001 -1.000000 -0.000000 0.334154 0.674088
1.000000 0.999999 1.000000 -0.000001 -1.000000 -0.000000 0.334154 0.774666
0.317431 1.000000 0.317431 -0.000001 -1.000000 -0.000000 0.299828 0.740341
0.317431 1.000000 -0.317431 -0.000001 -1.000000 -0.000000 0.299828 0.708414
-1.000000 1.000000 1.000000 -0.000000 -1.000000 0.000000 0.233576 0.774666
-1.000000 1.000000 -1.000000 -0.000000 -1.000000 0.000000 0.233576 0.674089
-0.317431 1.000000 -0.317431 -0.000000 -1.000000 0.000000 0.267901 0.708414
-0.317431 1.000000 0.317431 -0.000000 -1.000000 0.000000 0.267901 0.740341
1.000000 1.000000 -1.000000 0.000000 -1.000000 -0.000000 0.334154 0.674088
0.317431 1.000000 -0.317431 0.000000 -1.000000 -0.000000 0.299828 0.708414
1.000000 0.999999 1.000000 -0.000000 -1.000000 -0.000001 0.334154 0.774666
-1.000000 1.000000 1.000000 -0.000000 -1.000000 -0.000001 0.233576 0.774666
-0.317431 1.000000 0.317431 -0.000000 -1.000000 -0.000001 0.267901 0.740341
0.317431 1.000000 0.317431 -0.000000 -1.000000 -0.000001 0.299828 0.740341
-0.317431 1.267778 -0.317431 0.000000 -1.000000 -0.000000 0.479735 0.585689
0.317431 1.267778 -0.317431 0.000000 -1.000000 -0.000000 0.561544 0.585689
0.317431 1.267778 0.317431 0.000000 -1.000000 -0.000000 0.561544 0.667499
-0.317431 1.267778 0.317431 0.000000 -1.000000 -0.000000 0.479735 0.667499
-0.317431 1.000000 0.317431 1.000000 0.000000 0.000000 0.445228 0.667499
-0.317431 1.000000 -0.317431 1.000000 0.000000 0.000000 0.445228 0.585689
-0.317431 1.267778 -0.317431 1.000000 0.000000 0.000000 0.479735 0.585689
-0.317431 1.267778 0.317431 1.000000 0.000000 0.000000 0.479735 0.667499
-0.317431 1.000000 -0.317431 0.000000 0.000000 1.000000 0.479735 0.551183
0.317431 1.000000 -0.317431 0.000000 0.000000 1.000000 0.561544 0.551183
0.317431 1.267778 -0.317431 0.000000 0.000000 1.000000 0.561544 0.585689
-0.317431 1.267778 -0.317431 0.000000 0.000000 1.000000 0.479735 0.585689
0.317431 1.000000 0.317431 0.000000 -0.000000 -1.000000 0.561544 0.702005
-0.317431 1.000000 0.317431 0.000000 -0.000000 -1.000000 0.479735 0.702005
-0.317431 1.267778 0.317431 0.000000 -0.000000 -1.000000 0.479735 0.667499
0.317431 1.267778 0.317431 0.000000 -0.000000 -1.000000 0.561544 0.667499
4 0 1 2 3
4 4 5 6 7
4 8 9 10 11
4 12 13 14 15
4 16 17 18 19
4 20 21 22 23
4 24 25 26 27
4 25 28 29 26
4 30 31 32 33
4 34 35 36 37
4 38 39 40 41
4 42 43 44 45
4 46 47 48 49
