ply
format ascii 1.0
comment Created by Blender 2.66 (sub 1) - www.blender.org, source file: ''
element vertex 20
property float x
property float y
property float z
property float nx
property float ny
property float nz
property float s
property float t
element face 5
property list uchar uint vertex_indices
end_header
1.000000 1.000000 -1.000000 0.000000 -0.000000 1.000000 0.411533 0.857376
-1.000000 1.000000 -1.000000 0.000000 -0.000000 1.000000 0.247326 0.857376
-1.000000 -1.000000 -1.000000 0.000000 -0.000000 1.000000 0.247326 0.693168
1.000000 -1.000000 -1.000000 0.000000 -0.000000 1.000000 0.411533 0.693168
1.000000 1.000000 -1.000000 -1.000000 0.000000 -0.000000 0.219662 0.239128
1.000000 -1.000000 -1.000000 -1.000000 0.000000 -0.000000 0.219662 0.136215
0.999999 -1.000001 1.000000 -1.000000 0.000000 -0.000000 0.322575 0.136215
1.000000 0.999999 1.000000 -1.000000 0.000000 -0.000000 0.322575 0.239128
1.000000 -1.000000 -1.000000 0.000000 1.000000 0.000000 0.411533 0.528863
-1.000000 -1.000000 -1.000000 0.000000 1.000000 0.000000 0.411533 0.693070
-1.000000 -1.000000 1.000000 0.000000 1.000000 0.000000 0.247326 0.693070
0.999999 -1.000001 1.000000 0.000000 1.000000 0.000000 0.247326 0.528863
-1.000000 -1.000000 -1.000000 1.000000 0.000000 0.000000 0.036298 0.176965
-1.000000 1.000000 -1.000000 1.000000 0.000000 0.000000 0.134005 0.176965
-1.000000 1.000000 1.000000 1.000000 0.000000 0.000000 0.134005 0.274672
-1.000000 -1.000000 1.000000 1.000000 0.000000 0.000000 0.036298 0.274672
-1.000000 1.000000 -1.000000 -0.000000 -1.000000 -0.000000 0.083020 0.528863
1.000000 1.000000 -1.000000 -0.000000 -1.000000 -0.000000 0.247227 0.528863
1.000000 0.999999 1.000000 -0.000000 -1.000000 -0.000000 0.247227 0.693070
-1.000000 1.000000 1.000000 -0.000000 -1.000000 -0.000000 0.083020 0.693070
4 0 1 2 3
4 4 5 6 7
4 8 9 10 11
4 12 13 14 15
4 16 17 18 19
