ply
format ascii 1.0
comment Created by Blender 2.69 (sub 10) - www.blender.org, source file: 'cornell_box_bunny.blend'
element vertex 20
property float x
property float y
property float z
property float nx
property float ny
property float nz
property float s
property float t
element face 5
property list uchar uint vertex_indices
end_header
1.000000 1.000000 -1.000000 0.000000 -0.000000 1.000000 0.000166 -0.500466
-1.000000 1.000000 -1.000000 0.000000 -0.000000 1.000000 -0.499966 -0.500466
-1.000000 -1.000000 -1.000000 0.000000 -0.000000 1.000000 -0.499966 -1.000598
1.000000 -1.000000 -1.000000 0.000000 -0.000000 1.000000 0.000166 -1.000598
1.000000 1.000000 -1.000000 -1.000000 0.000000 -0.000000 -1.501230 -0.500466
1.000000 -1.000000 -1.000000 -1.000000 0.000000 -0.000000 -1.501230 -1.000597
0.999999 -1.000001 1.000000 -1.000000 0.000000 -0.000000 -1.001099 -1.000598
1.000000 0.999999 1.000000 -1.000000 0.000000 -0.000000 -1.001098 -0.500466
1.000000 -1.000000 -1.000000 0.000000 1.000000 0.000000 -1.000598 -0.500466
-1.000000 -1.000000 -1.000000 0.000000 1.000000 0.000000 -1.000598 -1.000597
-1.000000 -1.000000 1.000000 0.000000 1.000000 0.000000 -0.500466 -1.000598
0.999999 -1.000001 1.000000 0.000000 1.000000 0.000000 -0.500466 -0.500466
-1.000000 -1.000000 -1.000000 1.000000 -0.000000 0.000000 -0.500466 0.000167
-1.000000 1.000000 -1.000000 1.000000 -0.000000 0.000000 -1.000598 0.000167
-1.000000 1.000000 1.000000 1.000000 -0.000000 0.000000 -1.000598 -0.499965
-1.000000 -1.000000 1.000000 1.000000 -0.000000 0.000000 -0.500466 -0.499965
-1.000000 1.000000 -1.000000 -0.000000 -1.000000 -0.000000 0.000167 0.000167
1.000000 1.000000 -1.000000 -0.000000 -1.000000 -0.000000 -0.499965 0.000167
1.000000 0.999999 1.000000 -0.000000 -1.000000 -0.000000 -0.499966 -0.499965
-1.000000 1.000000 1.000000 -0.000000 -1.000000 -0.000000 0.000166 -0.499966
4 0 1 2 3
4 4 5 6 7
4 8 9 10 11
4 12 13 14 15
4 16 17 18 19
