ply
format ascii 1.0
comment Created by Blender 2.69 (sub 10) - www.blender.org, source file: ''
element vertex 482
property float x
property float y
property float z
property float nx
property float ny
property float nz
element face 512
property list uchar uint vertex_indices
end_header
-0.381539 0.154247 -0.002591 -0.924741 0.380535 0.000000
-0.404574 0.078311 -0.002591 -0.980987 0.193915 0.000000
-0.396946 0.078311 0.074863 -0.962157 0.193915 0.191382
-0.374353 0.154247 0.070369 -0.906980 0.380535 0.180395
-0.293792 -0.286891 -0.002591 -0.710135 -0.704031 0.000000
-0.232451 -0.337232 -0.002591 -0.559771 -0.828639 0.000000
-0.228130 -0.337232 0.041283 -0.548997 -0.828639 0.109195
-0.288292 -0.286891 0.053250 -0.696493 -0.704031 0.138524
-0.162468 -0.374639 -0.002591 -0.387860 -0.921690 0.000000
-0.086532 -0.397673 -0.002591 -0.200964 -0.979583 0.000000
-0.085014 -0.397673 0.012816 -0.197089 -0.979583 0.039186
-0.159491 -0.374639 0.027630 -0.380413 -0.921690 0.075655
-0.344133 0.224230 -0.002591 -0.833338 0.552751 0.000000
-0.337665 0.224230 0.063071 -0.817316 0.552751 0.162572
-0.344133 -0.225550 -0.002591 -0.833338 -0.552751 0.000000
-0.337665 -0.225550 0.063071 -0.817316 -0.552751 0.162572
-0.293792 0.285571 -0.002591 -0.710135 0.704031 0.000000
-0.288292 0.285571 0.053250 -0.696493 0.704031 0.138524
-0.381539 -0.155567 -0.002591 -0.924741 -0.380535 0.000000
-0.374353 -0.155567 0.070369 -0.906980 -0.380535 0.180395
-0.232451 0.335912 -0.002591 -0.559771 0.828639 0.000000
-0.228130 0.335912 0.041283 -0.548997 0.828639 0.109195
-0.404574 -0.079631 -0.002591 -0.980987 -0.193915 0.000000
-0.396946 -0.079631 0.074863 -0.962157 -0.193915 0.191382
-0.162468 0.373319 -0.002591 -0.387860 0.921690 0.000000
-0.159491 0.373319 0.027630 -0.380413 0.921690 0.075655
-0.412352 -0.000660 -0.002591 -1.000000 0.000000 0.000000
-0.404574 -0.000660 0.076380 -0.980773 0.000000 0.195074
-0.086532 0.396354 -0.002591 -0.200964 0.979583 0.000000
-0.085014 0.396354 0.012816 -0.197089 0.979583 0.039186
-0.272003 0.285571 0.106945 -0.656056 0.704031 0.271737
-0.215332 0.335912 0.083471 -0.517136 0.828639 0.214209
-0.353072 -0.155567 0.140525 -0.854366 -0.380535 0.353862
-0.374353 -0.079631 0.149340 -0.906339 -0.193915 0.375408
-0.150676 0.373319 0.056690 -0.358348 0.921690 0.148412
-0.381539 -0.000660 0.152316 -0.923856 0.000000 0.382672
-0.080520 -0.397673 0.027630 -0.185644 -0.979583 0.076876
-0.150676 -0.374639 0.056690 -0.358348 -0.921690 0.148412
-0.080520 0.396354 0.027630 -0.185644 0.979583 0.076876
-0.374353 0.078311 0.149340 -0.906339 0.193915 0.375408
-0.215332 -0.337232 0.083471 -0.517136 -0.828639 0.214209
-0.353072 0.154247 0.140525 -0.854366 0.380535 0.353862
-0.272003 -0.286891 0.106945 -0.656056 -0.704031 0.271737
-0.318513 0.224230 0.126210 -0.769890 0.552751 0.318888
-0.318513 -0.225550 0.126210 -0.769890 -0.552751 0.318888
-0.194550 -0.337232 0.122352 -0.465407 -0.828639 0.310984
-0.245553 -0.286891 0.156431 -0.590442 -0.704031 0.394513
-0.318513 0.154247 0.205181 -0.768914 0.380505 0.513749
-0.287410 0.224230 0.184399 -0.692892 0.552751 0.462966
-0.287410 -0.225550 0.184399 -0.692892 -0.552751 0.462966
-0.245553 0.285571 0.156431 -0.590442 0.704031 0.394513
-0.318513 -0.155567 0.205181 -0.768914 -0.380505 0.513749
-0.194550 0.335912 0.122352 -0.465407 0.828639 0.310984
-0.337665 -0.079631 0.217978 -0.815668 -0.193915 0.545000
-0.136361 0.373319 0.083471 -0.322489 0.921690 0.215491
-0.344133 -0.000660 0.222299 -0.831446 0.000000 0.555559
-0.073223 -0.397673 0.041283 -0.167089 -0.979583 0.111637
-0.136361 -0.374639 0.083471 -0.322489 -0.921690 0.215491
-0.073223 0.396354 0.041283 -0.167089 0.979583 0.111637
-0.337665 0.078311 0.217978 -0.815668 0.193915 0.545000
-0.288292 -0.079631 0.278140 -0.693655 -0.193915 0.693655
-0.293791 -0.000660 0.283640 -0.707083 0.000000 0.707083
-0.063402 -0.397673 0.053250 -0.142094 -0.979583 0.142094
-0.117096 -0.374639 0.106945 -0.274270 -0.921690 0.274270
-0.117096 0.373319 0.106945 -0.274270 0.921690 0.274270
-0.063401 0.396354 0.053250 -0.142094 0.979583 0.142094
-0.288292 0.078311 0.278140 -0.693655 0.193915 0.693655
-0.166582 -0.337232 0.156431 -0.395795 -0.828639 0.395795
-0.272003 0.154247 0.261852 -0.653890 0.380535 0.653890
-0.209956 -0.286891 0.199805 -0.502121 -0.704031 0.502121
-0.245553 0.224230 0.235402 -0.589251 0.552751 0.589251
-0.245553 -0.225550 0.235402 -0.589251 -0.552751 0.589251
-0.209956 0.285571 0.199805 -0.502121 0.704031 0.502121
-0.272003 -0.155567 0.261852 -0.653890 -0.380535 0.653890
-0.166582 0.335912 0.156431 -0.395795 0.828639 0.395795
-0.194550 0.224230 0.277259 -0.462966 0.552751 0.692892
-0.166582 0.285571 0.235402 -0.394513 0.704031 0.590442
-0.194550 -0.225550 0.277259 -0.462966 -0.552751 0.692892
-0.215332 -0.155567 0.308361 -0.513749 -0.380535 0.768914
-0.132503 0.335912 0.184399 -0.310984 0.828639 0.465407
-0.228130 -0.079631 0.327514 -0.545000 -0.193915 0.815668
-0.093622 0.373319 0.126210 -0.215491 0.921690 0.322489
-0.232451 -0.000660 0.333981 -0.555559 0.000000 0.831446
-0.051434 -0.397674 0.063071 -0.111637 -0.979583 0.167089
-0.093622 -0.374639 0.126210 -0.215491 -0.921690 0.322489
-0.051434 0.396354 0.063071 -0.111637 0.979583 0.167089
-0.228130 0.078311 0.327514 -0.545000 0.193915 0.815668
-0.132503 -0.337232 0.184399 -0.310984 -0.828639 0.465407
-0.215332 0.154247 0.308361 -0.513749 0.380535 0.768914
-0.166582 -0.286891 0.235402 -0.394513 -0.704031 0.590442
-0.159491 0.078311 0.364202 -0.375408 0.193915 0.906339
-0.150676 0.154247 0.342920 -0.353862 0.380535 0.854366
-0.093622 -0.337232 0.205181 -0.214209 -0.828639 0.517167
-0.117096 -0.286891 0.261852 -0.271737 -0.704031 0.656087
-0.136361 0.224230 0.308361 -0.318888 0.552751 0.769890
-0.136361 -0.225550 0.308361 -0.318888 -0.552751 0.769890
-0.117096 0.285571 0.261852 -0.271737 0.704031 0.656087
-0.150676 -0.155567 0.342920 -0.353862 -0.380535 0.854366
-0.093622 0.335912 0.205181 -0.214209 0.828639 0.517167
-0.159491 -0.079631 0.364202 -0.375408 -0.193915 0.906339
-0.066841 0.373319 0.140525 -0.148412 0.921690 0.358348
-0.162468 -0.000660 0.371388 -0.382672 0.000000 0.923856
-0.037782 -0.397673 0.070369 -0.076907 -0.979583 0.185675
-0.066841 -0.374639 0.140525 -0.148412 -0.921690 0.358348
-0.037782 0.396354 0.070369 -0.076907 0.979583 0.185644
-0.051434 0.335912 0.217978 -0.109195 0.828639 0.548997
-0.037782 0.373319 0.149340 -0.075655 0.921690 0.380413
-0.085014 -0.079631 0.386794 -0.191382 -0.193915 0.962157
-0.086532 -0.000660 0.394423 -0.195074 0.000000 0.980773
-0.022967 -0.397674 0.074863 -0.039186 -0.979583 0.197089
-0.037782 -0.374639 0.149340 -0.075655 -0.921690 0.380413
-0.022967 0.396354 0.074863 -0.039186 0.979583 0.197089
-0.085014 0.078311 0.386794 -0.191382 0.193915 0.962157
-0.051434 -0.337232 0.217978 -0.109195 -0.828639 0.548997
-0.080520 0.154247 0.364202 -0.180395 0.380535 0.906980
-0.063401 -0.286891 0.278140 -0.138524 -0.704031 0.696493
-0.073223 0.224230 0.327514 -0.162572 0.552751 0.817316
-0.073223 -0.225550 0.327514 -0.162572 -0.552751 0.817316
-0.063401 0.285571 0.278140 -0.138524 0.704031 0.696493
-0.080520 -0.155567 0.364202 -0.180395 -0.380535 0.906980
-0.007561 0.224230 0.333981 0.000000 0.552751 0.833338
-0.007561 0.285571 0.283640 0.000000 0.704031 0.710135
-0.007561 -0.225550 0.333981 0.000000 -0.552751 0.833338
-0.007561 -0.155567 0.371388 0.000000 -0.380535 0.924741
-0.007561 0.335912 0.222299 0.000000 0.828639 0.559771
-0.007561 -0.079631 0.394423 0.000000 -0.193915 0.980987
-0.007561 0.373319 0.152316 0.000000 0.921690 0.387860
-0.007561 -0.000660 0.402201 0.000000 0.000000 1.000000
-0.007561 -0.397673 0.076380 0.000000 -0.979583 0.200964
-0.007561 -0.374639 0.152316 0.000000 -0.921690 0.387860
-0.007561 0.396354 0.076380 0.000000 0.979583 0.200964
-0.007561 0.078311 0.394423 0.000000 0.193915 0.980987
-0.007561 -0.337232 0.222299 0.000000 -0.828639 0.559771
-0.007561 0.154247 0.371388 0.000000 0.380535 0.924741
-0.007561 -0.286891 0.283640 0.000000 -0.704031 0.710135
0.069893 0.078311 0.386794 0.191382 0.193915 0.962157
0.065399 0.154247 0.364202 0.180395 0.380535 0.906980
0.036313 -0.337232 0.217978 0.109195 -0.828639 0.548997
0.048280 -0.286891 0.278140 0.138524 -0.704031 0.696493
0.058101 0.224230 0.327514 0.162572 0.552751 0.817316
0.058101 -0.225550 0.327514 0.162572 -0.552751 0.817316
0.048280 0.285571 0.278140 0.138524 0.704031 0.696493
0.065399 -0.155567 0.364202 0.180395 -0.380535 0.906980
0.036313 0.335912 0.217978 0.109195 0.828639 0.548997
0.069893 -0.079631 0.386794 0.191382 -0.193915 0.962157
0.022660 0.373319 0.149340 0.075655 0.921690 0.380413
0.071410 -0.000660 0.394423 0.195074 0.000000 0.980773
0.007846 -0.397673 0.074863 0.039186 -0.979583 0.197089
0.022660 -0.374639 0.149340 0.075655 -0.921690 0.380413
0.007846 0.396354 0.074863 0.039186 0.979583 0.197089
0.078501 0.335912 0.205181 0.214209 0.828639 0.517167
0.051720 0.373319 0.140525 0.148412 0.921690 0.358348
0.144370 -0.079631 0.364202 0.375408 -0.193915 0.906339
0.147346 -0.000660 0.371388 0.382672 0.000000 0.923856
0.022660 -0.397674 0.070369 0.076907 -0.979583 0.185644
0.051720 -0.374639 0.140525 0.148412 -0.921690 0.358348
0.022660 0.396354 0.070369 0.076907 0.979583 0.185644
0.144370 0.078311 0.364202 0.375408 0.193915 0.906339
0.078501 -0.337232 0.205181 0.214209 -0.828639 0.517167
0.135555 0.154247 0.342920 0.353893 0.380535 0.854366
0.101975 -0.286891 0.261852 0.271737 -0.704031 0.656087
0.121240 0.224230 0.308361 0.318888 0.552751 0.769890
0.121240 -0.225550 0.308361 0.318888 -0.552751 0.769890
0.101975 0.285571 0.261852 0.271737 0.704031 0.656087
0.135555 -0.155567 0.342920 0.353862 -0.380535 0.854366
0.179429 0.224230 0.277258 0.462966 0.552751 0.692892
0.151461 0.285571 0.235402 0.394513 0.704031 0.590442
0.179429 -0.225550 0.277259 0.462966 -0.552751 0.692892
0.200211 -0.155567 0.308361 0.513749 -0.380535 0.768883
0.117382 0.335912 0.184399 0.310984 0.828639 0.465407
0.213008 -0.079631 0.327514 0.545000 -0.193915 0.815668
0.078501 0.373319 0.126210 0.215491 0.921690 0.322489
0.217329 -0.000660 0.333981 0.555559 0.000000 0.831446
0.036313 -0.397673 0.063071 0.111637 -0.979583 0.167089
0.078501 -0.374639 0.126210 0.215491 -0.921690 0.322489
0.036313 0.396354 0.063071 0.111637 0.979583 0.167089
0.213008 0.078311 0.327514 0.545000 0.193915 0.815668
0.117382 -0.337232 0.184399 0.310984 -0.828639 0.465407
0.200211 0.154247 0.308361 0.513749 0.380535 0.768883
0.151461 -0.286891 0.235402 0.394513 -0.704031 0.590442
0.101975 -0.374639 0.106945 0.274270 -0.921690 0.274270
0.151461 -0.337232 0.156431 0.395795 -0.828639 0.395795
0.273170 0.078311 0.278140 0.693655 0.193915 0.693655
0.256882 0.154247 0.261852 0.653890 0.380535 0.653890
0.194835 -0.286891 0.199805 0.502121 -0.704031 0.502121
0.230431 0.224230 0.235401 0.589251 0.552751 0.589251
0.230431 -0.225550 0.235401 0.589251 -0.552751 0.589251
0.194835 0.285571 0.199805 0.502121 0.704031 0.502121
0.256882 -0.155567 0.261852 0.653890 -0.380535 0.653890
0.151461 0.335912 0.156431 0.395795 0.828639 0.395795
0.273170 -0.079631 0.278140 0.693655 -0.193915 0.693655
0.101975 0.373319 0.106945 0.274270 0.921690 0.274270
0.278670 -0.000660 0.283640 0.707083 0.000000 0.707083
0.048280 -0.397674 0.053250 0.142094 -0.979583 0.142094
0.048280 0.396354 0.053250 0.142094 0.979583 0.142094
0.303391 -0.155567 0.205181 0.768883 -0.380535 0.513749
0.322544 -0.079631 0.217978 0.815668 -0.193915 0.545000
0.179429 0.335912 0.122351 0.465407 0.828639 0.310984
0.121240 0.373319 0.083471 0.322489 0.921690 0.215491
0.329011 -0.000660 0.222299 0.831446 0.000000 0.555559
0.058101 -0.397673 0.041283 0.167089 -0.979583 0.111637
0.121240 -0.374639 0.083471 0.322489 -0.921690 0.215491
0.058101 0.396354 0.041283 0.167089 0.979583 0.111637
0.322544 0.078311 0.217978 0.815668 0.193915 0.545000
0.179429 -0.337232 0.122352 0.465407 -0.828639 0.310984
0.303391 0.154247 0.205181 0.768883 0.380535 0.513749
0.230432 -0.286891 0.156431 0.590442 -0.704031 0.394513
0.272289 0.224230 0.184398 0.692892 0.552751 0.462966
0.272289 -0.225550 0.184398 0.692892 -0.552751 0.462966
0.230432 0.285571 0.156431 0.590442 0.704031 0.394513
0.337950 0.154247 0.140525 0.854366 0.380535 0.353862
0.303391 0.224230 0.126210 0.769890 0.552751 0.318888
0.256882 -0.286891 0.106945 0.656087 -0.704031 0.271737
0.303391 -0.225550 0.126210 0.769890 -0.552751 0.318888
0.256882 0.285571 0.106945 0.656087 0.704031 0.271737
0.337950 -0.155567 0.140525 0.854366 -0.380535 0.353862
0.200211 0.335912 0.083471 0.517167 0.828639 0.214209
0.359232 -0.079631 0.149340 0.906339 -0.193915 0.375408
0.135555 0.373319 0.056690 0.358348 0.921690 0.148412
0.366418 -0.000660 0.152316 0.923856 0.000000 0.382672
0.065399 -0.397673 0.027630 0.185644 -0.979583 0.076907
0.135555 -0.374639 0.056690 0.358348 -0.921690 0.148412
0.065399 0.396354 0.027630 0.185644 0.979583 0.076907
0.359232 0.078311 0.149340 0.906339 0.193915 0.375408
0.200211 -0.337232 0.083471 0.517167 -0.828639 0.214209
0.144370 0.373319 0.027630 0.380413 0.921690 0.075655
0.069893 0.396354 0.012816 0.197089 0.979583 0.039186
0.389453 -0.000660 0.076380 0.980773 0.000000 0.195074
0.381824 0.078311 0.074863 0.962157 0.193915 0.191382
0.144370 -0.374639 0.027630 0.380413 -0.921690 0.075655
0.213008 -0.337232 0.041283 0.548997 -0.828639 0.109195
0.359232 0.154247 0.070369 0.906980 0.380535 0.180395
0.273170 -0.286891 0.053250 0.696493 -0.704031 0.138524
0.322544 0.224230 0.063071 0.817316 0.552751 0.162572
0.322544 -0.225550 0.063071 0.817316 -0.552751 0.162572
0.273170 0.285571 0.053250 0.696493 0.704031 0.138524
0.359232 -0.155567 0.070369 0.906980 -0.380535 0.180395
0.213008 0.335912 0.041283 0.548997 0.828639 0.109195
0.381824 -0.079631 0.074863 0.962157 -0.193915 0.191382
0.069893 -0.397673 0.012816 0.197089 -0.979583 0.039186
0.278670 0.285571 -0.002591 0.710135 0.704031 0.000000
0.217329 0.335912 -0.002591 0.559771 0.828639 0.000000
0.366418 -0.155567 -0.002591 0.924741 -0.380535 0.000000
0.389453 -0.079631 -0.002591 0.980987 -0.193915 0.000000
0.147346 0.373319 -0.002591 0.387860 0.921690 0.000000
0.397231 -0.000660 -0.002591 1.000000 0.000000 0.000000
0.071410 -0.397673 -0.002591 0.200964 -0.979583 0.000000
0.147346 -0.374639 -0.002591 0.387860 -0.921690 0.000000
0.071410 0.396354 -0.002591 0.200964 0.979583 0.000000
0.389453 0.078311 -0.002591 0.980987 0.193915 0.000000
0.217329 -0.337232 -0.002591 0.559771 -0.828639 0.000000
0.366418 0.154247 -0.002591 0.924741 0.380535 0.000000
0.278670 -0.286891 -0.002591 0.710135 -0.704031 0.000000
0.329011 0.224230 -0.002591 0.833338 0.552751 0.000000
0.329011 -0.225550 -0.002591 0.833338 -0.552751 0.000000
0.359232 0.154247 -0.075550 0.906980 0.380535 -0.180395
0.322544 0.224230 -0.068253 0.817316 0.552751 -0.162572
0.273170 -0.286891 -0.058432 0.696493 -0.704031 -0.138524
0.322544 -0.225550 -0.068253 0.817316 -0.552751 -0.162572
0.273170 0.285571 -0.058432 0.696493 0.704031 -0.138524
0.359232 -0.155567 -0.075550 0.906980 -0.380535 -0.180395
0.213008 0.335912 -0.046465 0.548997 0.828639 -0.109195
0.381824 -0.079631 -0.080044 0.962157 -0.193915 -0.191382
0.144370 0.373319 -0.032812 0.380413 0.921690 -0.075655
0.389453 -0.000660 -0.081562 0.980773 0.000000 -0.195074
0.069893 -0.397673 -0.017997 0.197089 -0.979583 -0.039186
0.144370 -0.374639 -0.032812 0.380413 -0.921690 -0.075655
0.069893 0.396353 -0.017997 0.197089 0.979583 -0.039186
0.381824 0.078311 -0.080044 0.962157 0.193915 -0.191382
0.213008 -0.337232 -0.046465 0.548997 -0.828639 -0.109195
0.135555 0.373319 -0.061871 0.358348 0.921690 -0.148412
0.065399 0.396354 -0.032812 0.185675 0.979583 -0.076876
0.366418 -0.000660 -0.157498 0.923856 0.000000 -0.382672
0.359232 0.078311 -0.154521 0.906339 0.193915 -0.375408
0.135555 -0.374639 -0.061871 0.358348 -0.921690 -0.148412
0.200211 -0.337232 -0.088652 0.517167 -0.828639 -0.214209
0.337950 0.154247 -0.145706 0.854366 0.380535 -0.353862
0.256882 -0.286891 -0.112127 0.656056 -0.704031 -0.271737
0.303391 0.224230 -0.131391 0.769890 0.552751 -0.318888
0.303391 -0.225550 -0.131391 0.769890 -0.552751 -0.318888
0.256882 0.285571 -0.112127 0.656056 0.704031 -0.271737
0.337950 -0.155567 -0.145706 0.854366 -0.380535 -0.353862
0.200211 0.335912 -0.088653 0.517167 0.828639 -0.214209
0.359232 -0.079631 -0.154521 0.906339 -0.193915 -0.375408
0.065399 -0.397673 -0.032812 0.185644 -0.979583 -0.076907
0.230431 0.285571 -0.161612 0.590442 0.704031 -0.394513
0.179429 0.335912 -0.127533 0.465438 0.828639 -0.310984
0.303391 -0.155567 -0.210362 0.768914 -0.380535 -0.513749
0.322544 -0.079631 -0.223160 0.815668 -0.193915 -0.545000
0.121240 0.373319 -0.088653 0.322489 0.921690 -0.215491
0.329011 -0.000660 -0.227481 0.831446 0.000000 -0.555559
0.058101 -0.397673 -0.046465 0.167089 -0.979583 -0.111637
0.121240 -0.374639 -0.088652 0.322489 -0.921690 -0.215491
0.058101 0.396354 -0.046465 0.167089 0.979583 -0.111637
0.322544 0.078311 -0.223160 0.815668 0.193915 -0.545000
0.179429 -0.337232 -0.127533 0.465438 -0.828639 -0.310984
0.303391 0.154247 -0.210362 0.768914 0.380535 -0.513749
0.230431 -0.286891 -0.161612 0.590442 -0.704031 -0.394513
0.272289 0.224230 -0.189580 0.692892 0.552751 -0.462966
0.272289 -0.225550 -0.189580 0.692892 -0.552751 -0.462966
0.256882 0.154247 -0.267034 0.653890 0.380535 -0.653890
0.230431 0.224230 -0.240583 0.589251 0.552751 -0.589251
0.194835 -0.286891 -0.204986 0.502121 -0.704031 -0.502121
0.230431 -0.225550 -0.240583 0.589251 -0.552751 -0.589251
0.194835 0.285571 -0.204986 0.502121 0.704031 -0.502121
0.256882 -0.155567 -0.267034 0.653890 -0.380535 -0.653890
0.151461 0.335912 -0.161612 0.395795 0.828639 -0.395795
0.273170 -0.079631 -0.283322 0.693655 -0.193915 -0.693655
0.101975 0.373319 -0.112127 0.274270 0.921690 -0.274270
0.278670 -0.000660 -0.288821 0.707083 0.000000 -0.707083
0.048280 -0.397673 -0.058432 0.142094 -0.979583 -0.142094
0.101975 -0.374639 -0.112127 0.274270 -0.921690 -0.274270
0.048280 0.396354 -0.058432 0.142094 0.979583 -0.142094
0.273170 0.078311 -0.283322 0.693655 0.193915 -0.693655
0.151461 -0.337232 -0.161612 0.395795 -0.828639 -0.395795
0.036313 -0.397673 -0.068253 0.111667 -0.979583 -0.167089
0.078501 -0.374639 -0.131391 0.215491 -0.921690 -0.322489
0.078501 0.373319 -0.131391 0.215491 0.921690 -0.322489
0.036313 0.396354 -0.068253 0.111637 0.979583 -0.167089
0.217329 -0.000660 -0.339162 0.555559 0.000000 -0.831446
0.213008 0.078311 -0.332695 0.545000 0.193915 -0.815668
0.117382 -0.337232 -0.189580 0.310984 -0.828639 -0.465407
0.200211 0.154247 -0.313543 0.513749 0.380535 -0.768914
0.151461 -0.286891 -0.240583 0.394513 -0.704031 -0.590442
0.179428 0.224230 -0.282440 0.462966 0.552751 -0.692892
0.179428 -0.225550 -0.282440 0.462966 -0.552751 -0.692892
0.151461 0.285571 -0.240583 0.394513 0.704031 -0.590442
0.200211 -0.155567 -0.313543 0.513749 -0.380535 -0.768914
0.117382 0.335912 -0.189580 0.310984 0.828639 -0.465407
0.213008 -0.079631 -0.332695 0.545000 -0.193915 -0.815668
0.121240 -0.225550 -0.313542 0.318888 -0.552751 -0.769890
0.135555 -0.155567 -0.348102 0.353862 -0.380535 -0.854366
0.101975 0.285571 -0.267034 0.271737 0.704031 -0.656056
0.078501 0.335912 -0.210362 0.214209 0.828639 -0.517136
0.144370 -0.079631 -0.369383 0.375408 -0.193915 -0.906339
0.051720 0.373319 -0.145706 0.148412 0.921690 -0.358348
0.147346 -0.000660 -0.376569 0.382672 0.000000 -0.923856
0.022660 -0.397674 -0.075550 0.076876 -0.979583 -0.185644
0.051720 -0.374639 -0.145706 0.148412 -0.921690 -0.358348
0.022660 0.396354 -0.075550 0.076876 0.979583 -0.185644
0.144370 0.078311 -0.369383 0.375408 0.193915 -0.906339
0.078501 -0.337232 -0.210362 0.214209 -0.828639 -0.517136
0.135555 0.154247 -0.348102 0.353862 0.380535 -0.854366
0.101975 -0.286891 -0.267033 0.271737 -0.704031 -0.656087
0.121240 0.224230 -0.313543 0.318888 0.552751 -0.769890
0.069893 0.078311 -0.391976 0.191382 0.193915 -0.962157
0.065399 0.154247 -0.369383 0.180395 0.380535 -0.906980
0.036313 -0.337232 -0.223160 0.109195 -0.828639 -0.548997
0.048280 -0.286891 -0.283322 0.138524 -0.704031 -0.696493
0.058101 0.224230 -0.332695 0.162572 0.552751 -0.817316
0.058101 -0.225550 -0.332695 0.162572 -0.552751 -0.817316
0.048280 0.285571 -0.283322 0.138524 0.704031 -0.696493
0.065399 -0.155567 -0.369383 0.180395 -0.380535 -0.906980
0.036313 0.335912 -0.223160 0.109195 0.828639 -0.548997
0.069893 -0.079631 -0.391976 0.191382 -0.193915 -0.962157
0.022660 0.373319 -0.154521 0.075655 0.921690 -0.380413
0.071410 -0.000660 -0.399604 0.195074 0.000000 -0.980773
0.007846 -0.397673 -0.080044 0.039186 -0.979583 -0.197089
0.022660 -0.374639 -0.154521 0.075655 -0.921690 -0.380413
0.007846 0.396354 -0.080044 0.039186 0.979583 -0.197089
-0.007561 0.335912 -0.227481 0.000000 0.828639 -0.559771
-0.007561 0.373319 -0.157498 0.000000 0.921690 -0.387860
-0.007561 -0.079631 -0.399604 0.000000 -0.193915 -0.980987
-0.007561 -0.000660 -0.407382 0.000000 0.000000 -1.000000
-0.007561 -0.397673 -0.081562 0.000000 -0.979583 -0.200964
-0.007561 -0.374639 -0.157498 0.000000 -0.921690 -0.387860
-0.007561 0.396354 -0.081562 0.000000 0.979583 -0.200964
-0.007561 0.078311 -0.399604 0.000000 0.193915 -0.980987
-0.007561 -0.337232 -0.227481 0.000000 -0.828639 -0.559771
-0.007561 0.154247 -0.376569 0.000000 0.380535 -0.924741
-0.007561 -0.286891 -0.288821 0.000000 -0.704031 -0.710135
-0.007561 0.224230 -0.339162 0.000000 0.552751 -0.833338
-0.007561 -0.225550 -0.339162 0.000000 -0.552751 -0.833338
-0.007561 0.285571 -0.288822 0.000000 0.704031 -0.710135
-0.007561 -0.155567 -0.376569 0.000000 -0.380535 -0.924741
-0.073223 0.224230 -0.332695 -0.162572 0.552751 -0.817316
-0.063401 0.285571 -0.283322 -0.138524 0.704031 -0.696493
-0.073223 -0.225550 -0.332695 -0.162572 -0.552751 -0.817316
-0.080520 -0.155567 -0.369383 -0.180395 -0.380535 -0.906980
-0.051434 0.335912 -0.223160 -0.109195 0.828639 -0.548997
-0.085014 -0.079631 -0.391975 -0.191382 -0.193915 -0.962157
-0.037782 0.373319 -0.154521 -0.075655 0.921690 -0.380413
-0.086532 -0.000660 -0.399604 -0.195074 0.000000 -0.980773
-0.022967 -0.397673 -0.080044 -0.039186 -0.979583 -0.197089
-0.037782 -0.374639 -0.154521 -0.075655 -0.921690 -0.380413
-0.022967 0.396354 -0.080044 -0.039186 0.979583 -0.197089
-0.085014 0.078311 -0.391975 -0.191382 0.193915 -0.962157
-0.051434 -0.337232 -0.223160 -0.109195 -0.828639 -0.548997
-0.080520 0.154247 -0.369383 -0.180395 0.380535 -0.906980
-0.063401 -0.286891 -0.283322 -0.138524 -0.704031 -0.696493
-0.159491 0.078311 -0.369383 -0.375408 0.193915 -0.906339
-0.150676 0.154247 -0.348102 -0.353862 0.380535 -0.854366
-0.093622 -0.337232 -0.210362 -0.214209 -0.828639 -0.517136
-0.117096 -0.286891 -0.267033 -0.271737 -0.704031 -0.656056
-0.136361 0.224230 -0.313542 -0.318888 0.552751 -0.769890
-0.136361 -0.225550 -0.313542 -0.318888 -0.552751 -0.769890
-0.117096 0.285571 -0.267033 -0.271737 0.704031 -0.656056
-0.150676 -0.155567 -0.348102 -0.353862 -0.380535 -0.854366
-0.093622 0.335912 -0.210362 -0.214209 0.828639 -0.517136
-0.159491 -0.079631 -0.369383 -0.375408 -0.193915 -0.906339
-0.066841 0.373319 -0.145706 -0.148412 0.921690 -0.358348
-0.162468 -0.000660 -0.376569 -0.382672 0.000000 -0.923856
-0.037782 -0.397673 -0.075550 -0.076876 -0.979583 -0.185675
-0.066841 -0.374639 -0.145706 -0.148412 -0.921690 -0.358348
-0.037781 0.396354 -0.075550 -0.076876 0.979583 -0.185644
-0.132503 0.335912 -0.189580 -0.310984 0.828639 -0.465438
-0.093622 0.373319 -0.131391 -0.215491 0.921690 -0.322489
-0.228130 -0.079631 -0.332695 -0.545000 -0.193915 -0.815668
-0.232451 -0.000660 -0.339162 -0.555559 0.000000 -0.831446
-0.051434 -0.397674 -0.068253 -0.111637 -0.979583 -0.167089
-0.093622 -0.374639 -0.131391 -0.215491 -0.921690 -0.322489
-0.051434 0.396354 -0.068253 -0.111637 0.979583 -0.167089
-0.228130 0.078311 -0.332695 -0.545000 0.193915 -0.815668
-0.132503 -0.337232 -0.189580 -0.310984 -0.828639 -0.465407
-0.215332 0.154247 -0.313543 -0.513749 0.380535 -0.768914
-0.166582 -0.286891 -0.240583 -0.394513 -0.704031 -0.590442
-0.194550 0.224230 -0.282440 -0.462966 0.552751 -0.692892
-0.194550 -0.225550 -0.282440 -0.462966 -0.552751 -0.692892
-0.166582 0.285571 -0.240583 -0.394513 0.704031 -0.590442
-0.215332 -0.155567 -0.313542 -0.513749 -0.380535 -0.768914
-0.245553 0.224230 -0.240583 -0.589251 0.552751 -0.589251
-0.209956 0.285571 -0.204986 -0.502121 0.704031 -0.502121
-0.245553 -0.225550 -0.240583 -0.589251 -0.552751 -0.589251
-0.272003 -0.155567 -0.267033 -0.653890 -0.380535 -0.653890
-0.166582 0.335912 -0.161612 -0.395795 0.828639 -0.395795
-0.288292 -0.079631 -0.283322 -0.693655 -0.193915 -0.693655
-0.117096 0.373319 -0.112127 -0.274270 0.921690 -0.274270
-0.293791 -0.000660 -0.288821 -0.707083 0.000000 -0.707083
-0.063401 -0.397673 -0.058432 -0.142094 -0.979583 -0.142094
-0.117096 -0.374639 -0.112126 -0.274270 -0.921690 -0.274270
-0.063401 0.396354 -0.058432 -0.142094 0.979583 -0.142064
-0.288292 0.078311 -0.283322 -0.693655 0.193915 -0.693655
-0.166582 -0.337232 -0.161612 -0.395795 -0.828639 -0.395795
-0.272003 0.154247 -0.267033 -0.653890 0.380535 -0.653890
-0.209956 -0.286891 -0.204986 -0.502121 -0.704031 -0.502121
-0.337665 0.078311 -0.223160 -0.815668 0.193915 -0.545000
-0.318512 0.154247 -0.210362 -0.768914 0.380535 -0.513749
-0.194550 -0.337232 -0.127533 -0.465407 -0.828639 -0.310984
-0.245553 -0.286891 -0.161612 -0.590442 -0.704031 -0.394513
-0.287410 0.224230 -0.189580 -0.692892 0.552751 -0.462966
-0.287410 -0.225550 -0.189580 -0.692892 -0.552751 -0.462966
-0.245553 0.285571 -0.161612 -0.590442 0.704031 -0.394513
-0.318512 -0.155567 -0.210362 -0.768914 -0.380535 -0.513749
-0.194550 0.335912 -0.127533 -0.465438 0.828639 -0.310984
-0.337665 -0.079631 -0.223160 -0.815668 -0.193915 -0.545000
-0.136361 0.373319 -0.088653 -0.322489 0.921690 -0.215491
-0.344132 -0.000660 -0.227481 -0.831446 0.000000 -0.555559
-0.073223 -0.397673 -0.046465 -0.167089 -0.979583 -0.111637
-0.136361 -0.374639 -0.088652 -0.322489 -0.921690 -0.215491
-0.073223 0.396353 -0.046465 -0.167089 0.979583 -0.111637
-0.215332 0.335912 -0.088652 -0.517167 0.828639 -0.214209
-0.150676 0.373319 -0.061871 -0.358348 0.921690 -0.148412
-0.374353 -0.079631 -0.154521 -0.906339 -0.193915 -0.375408
-0.381539 -0.000660 -0.157498 -0.923856 0.000000 -0.382672
-0.080520 -0.397673 -0.032812 -0.185644 -0.979583 -0.076876
-0.150676 -0.374639 -0.061871 -0.358348 -0.921690 -0.148412
-0.080520 0.396354 -0.032812 -0.185644 0.979583 -0.076907
-0.374353 0.078311 -0.154521 -0.906339 0.193915 -0.375408
-0.215332 -0.337232 -0.088652 -0.517136 -0.828639 -0.214209
-0.353072 0.154247 -0.145706 -0.854366 0.380535 -0.353862
-0.272003 -0.286891 -0.112126 -0.656056 -0.704031 -0.271737
-0.318512 0.224230 -0.131391 -0.769890 0.552751 -0.318888
-0.318512 -0.225550 -0.131391 -0.769890 -0.552751 -0.318888
-0.272003 0.285571 -0.112126 -0.656056 0.704031 -0.271737
-0.353072 -0.155567 -0.145706 -0.854366 -0.380535 -0.353862
-0.288292 -0.286891 -0.058432 -0.696493 -0.704031 -0.138524
-0.337665 -0.225550 -0.068253 -0.817316 -0.552751 -0.162572
-0.337665 0.224230 -0.068253 -0.817316 0.552751 -0.162572
-0.288292 0.285571 -0.058432 -0.696493 0.704031 -0.138524
-0.374353 -0.155567 -0.075550 -0.906980 -0.380535 -0.180395
-0.228129 0.335912 -0.046465 -0.548997 0.828639 -0.109195
-0.396945 -0.079631 -0.080044 -0.962157 -0.193915 -0.191382
-0.159491 0.373319 -0.032812 -0.380413 0.921690 -0.075655
-0.404574 -0.000660 -0.081561 -0.980773 0.000000 -0.195074
-0.085014 -0.397673 -0.017997 -0.197089 -0.979583 -0.039186
-0.159491 -0.374639 -0.032812 -0.380413 -0.921690 -0.075655
-0.085014 0.396354 -0.017997 -0.197089 0.979583 -0.039186
-0.396945 0.078311 -0.080044 -0.962157 0.193915 -0.191382
-0.228130 -0.337232 -0.046465 -0.548997 -0.828639 -0.109195
-0.374353 0.154247 -0.075550 -0.906980 0.380535 -0.180395
-0.007561 0.404132 -0.002591 0.000000 1.000000 0.000000
-0.007561 -0.405452 -0.002591 0.000000 -1.000000 0.000000
4 0 1 2 3
4 4 5 6 7
4 8 9 10 11
4 12 0 3 13
4 14 4 7 15
4 16 12 13 17
4 18 14 15 19
4 20 16 17 21
4 22 18 19 23
4 24 20 21 25
4 26 22 23 27
4 28 24 25 29
4 1 26 27 2
4 5 8 11 6
4 21 17 30 31
4 23 19 32 33
4 25 21 31 34
4 27 23 33 35
4 11 10 36 37
4 29 25 34 38
4 2 27 35 39
4 6 11 37 40
4 3 2 39 41
4 7 6 40 42
4 13 3 41 43
4 15 7 42 44
4 17 13 43 30
4 19 15 44 32
4 42 40 45 46
4 43 41 47 48
4 44 42 46 49
4 30 43 48 50
4 32 44 49 51
4 31 30 50 52
4 33 32 51 53
4 34 31 52 54
4 35 33 53 55
4 37 36 56 57
4 38 34 54 58
4 39 35 55 59
4 40 37 57 45
4 41 39 59 47
4 55 53 60 61
4 57 56 62 63
4 58 54 64 65
4 59 55 61 66
4 45 57 63 67
4 47 59 66 68
4 46 45 67 69
4 48 47 68 70
4 49 46 69 71
4 50 48 70 72
4 51 49 71 73
4 52 50 72 74
4 53 51 73 60
4 54 52 74 64
4 72 70 75 76
4 73 71 77 78
4 74 72 76 79
4 60 73 78 80
4 64 74 79 81
4 61 60 80 82
4 63 62 83 84
4 65 64 81 85
4 66 61 82 86
4 67 63 84 87
4 68 66 86 88
4 69 67 87 89
4 70 68 88 75
4 71 69 89 77
4 88 86 90 91
4 89 87 92 93
4 75 88 91 94
4 77 89 93 95
4 76 75 94 96
4 78 77 95 97
4 79 76 96 98
4 80 78 97 99
4 81 79 98 100
4 82 80 99 101
4 84 83 102 103
4 85 81 100 104
4 86 82 101 90
4 87 84 103 92
4 100 98 105 106
4 101 99 107 108
4 103 102 109 110
4 104 100 106 111
4 90 101 108 112
4 92 103 110 113
4 91 90 112 114
4 93 92 113 115
4 94 91 114 116
4 95 93 115 117
4 96 94 116 118
4 97 95 117 119
4 98 96 118 105
4 99 97 119 107
4 118 116 120 121
4 119 117 122 123
4 105 118 121 124
4 107 119 123 125
4 106 105 124 126
4 108 107 125 127
4 110 109 128 129
4 111 106 126 130
4 112 108 127 131
4 113 110 129 132
4 114 112 131 133
4 115 113 132 134
4 116 114 133 120
4 117 115 134 122
4 133 131 135 136
4 134 132 137 138
4 120 133 136 139
4 122 134 138 140
4 121 120 139 141
4 123 122 140 142
4 124 121 141 143
4 125 123 142 144
4 126 124 143 145
4 127 125 144 146
4 129 128 147 148
4 130 126 145 149
4 131 127 146 135
4 132 129 148 137
4 145 143 150 151
4 146 144 152 153
4 148 147 154 155
4 149 145 151 156
4 135 146 153 157
4 137 148 155 158
4 136 135 157 159
4 138 137 158 160
4 139 136 159 161
4 140 138 160 162
4 141 139 161 163
4 142 140 162 164
4 143 141 163 150
4 144 142 164 152
4 163 161 165 166
4 164 162 167 168
4 150 163 166 169
4 152 164 168 170
4 151 150 169 171
4 153 152 170 172
4 155 154 173 174
4 156 151 171 175
4 157 153 172 176
4 158 155 174 177
4 159 157 176 178
4 160 158 177 179
4 161 159 178 165
4 162 160 179 167
4 177 174 180 181
4 178 176 182 183
4 179 177 181 184
4 165 178 183 185
4 167 179 184 186
4 166 165 185 187
4 168 167 186 188
4 169 166 187 189
4 170 168 188 190
4 171 169 189 191
4 172 170 190 192
4 174 173 193 180
4 175 171 191 194
4 176 172 192 182
4 190 188 195 196
4 191 189 197 198
4 192 190 196 199
4 180 193 200 201
4 194 191 198 202
4 182 192 199 203
4 181 180 201 204
4 183 182 203 205
4 184 181 204 206
4 185 183 205 207
4 186 184 206 208
4 187 185 207 209
4 188 186 208 195
4 189 187 209 197
4 207 205 210 211
4 208 206 212 213
4 209 207 211 214
4 195 208 213 215
4 197 209 214 216
4 196 195 215 217
4 198 197 216 218
4 199 196 217 219
4 201 200 220 221
4 202 198 218 222
4 203 199 219 223
4 204 201 221 224
4 205 203 223 210
4 206 204 224 212
4 222 218 225 226
4 223 219 227 228
4 224 221 229 230
4 210 223 228 231
4 212 224 230 232
4 211 210 231 233
4 213 212 232 234
4 214 211 233 235
4 215 213 234 236
4 216 214 235 237
4 217 215 236 238
4 218 216 237 225
4 219 217 238 227
4 221 220 239 229
4 237 235 240 241
4 238 236 242 243
4 225 237 241 244
4 227 238 243 245
4 229 239 246 247
4 226 225 244 248
4 228 227 245 249
4 230 229 247 250
4 231 228 249 251
4 232 230 250 252
4 233 231 251 253
4 234 232 252 254
4 235 233 253 240
4 236 234 254 242
4 253 251 255 256
4 254 252 257 258
4 240 253 256 259
4 242 254 258 260
4 241 240 259 261
4 243 242 260 262
4 244 241 261 263
4 245 243 262 264
4 247 246 265 266
4 248 244 263 267
4 249 245 264 268
4 250 247 266 269
4 251 249 268 255
4 252 250 269 257
4 267 263 270 271
4 268 264 272 273
4 269 266 274 275
4 255 268 273 276
4 257 269 275 277
4 256 255 276 278
4 258 257 277 279
4 259 256 278 280
4 260 258 279 281
4 261 259 280 282
4 262 260 281 283
4 263 261 282 270
4 264 262 283 272
4 266 265 284 274
4 282 280 285 286
4 283 281 287 288
4 270 282 286 289
4 272 283 288 290
4 274 284 291 292
4 271 270 289 293
4 273 272 290 294
4 275 274 292 295
4 276 273 294 296
4 277 275 295 297
4 278 276 296 298
4 279 277 297 299
4 280 278 298 285
4 281 279 299 287
4 298 296 300 301
4 299 297 302 303
4 285 298 301 304
4 287 299 303 305
4 286 285 304 306
4 288 287 305 307
4 289 286 306 308
4 290 288 307 309
4 292 291 310 311
4 293 289 308 312
4 294 290 309 313
4 295 292 311 314
4 296 294 313 300
4 297 295 314 302
4 311 310 315 316
4 312 308 317 318
4 313 309 319 320
4 314 311 316 321
4 300 313 320 322
4 302 314 321 323
4 301 300 322 324
4 303 302 323 325
4 304 301 324 326
4 305 303 325 327
4 306 304 326 328
4 307 305 327 329
4 308 306 328 317
4 309 307 329 319
4 327 325 330 331
4 328 326 332 333
4 329 327 331 334
4 317 328 333 335
4 319 329 334 336
4 316 315 337 338
4 318 317 335 339
4 320 319 336 340
4 321 316 338 341
4 322 320 340 342
4 323 321 341 343
4 324 322 342 344
4 325 323 343 330
4 326 324 344 332
4 342 340 345 346
4 343 341 347 348
4 344 342 346 349
4 330 343 348 350
4 332 344 349 351
4 331 330 350 352
4 333 332 351 353
4 334 331 352 354
4 335 333 353 355
4 336 334 354 356
4 338 337 357 358
4 339 335 355 359
4 340 336 356 345
4 341 338 358 347
4 355 353 360 361
4 356 354 362 363
4 358 357 364 365
4 359 355 361 366
4 345 356 363 367
4 347 358 365 368
4 346 345 367 369
4 348 347 368 370
4 349 346 369 371
4 350 348 370 372
4 351 349 371 373
4 352 350 372 374
4 353 351 373 360
4 354 352 374 362
4 373 371 375 376
4 374 372 377 378
4 360 373 376 379
4 362 374 378 380
4 361 360 379 381
4 363 362 380 382
4 365 364 383 384
4 366 361 381 385
4 367 363 382 386
4 368 365 384 387
4 369 367 386 388
4 370 368 387 389
4 371 369 388 375
4 372 370 389 377
4 388 386 390 391
4 389 387 392 393
4 375 388 391 394
4 377 389 393 395
4 376 375 394 396
4 378 377 395 397
4 379 376 396 398
4 380 378 397 399
4 381 379 398 400
4 382 380 399 401
4 384 383 402 403
4 385 381 400 404
4 386 382 401 390
4 387 384 403 392
4 400 398 405 406
4 401 399 407 408
4 403 402 409 410
4 404 400 406 411
4 390 401 408 412
4 392 403 410 413
4 391 390 412 414
4 393 392 413 415
4 394 391 414 416
4 395 393 415 417
4 396 394 416 418
4 397 395 417 419
4 398 396 418 405
4 399 397 419 407
4 418 416 420 421
4 419 417 422 423
4 405 418 421 424
4 407 419 423 425
4 406 405 424 426
4 408 407 425 427
4 410 409 428 429
4 411 406 426 430
4 412 408 427 431
4 413 410 429 432
4 414 412 431 433
4 415 413 432 434
4 416 414 433 420
4 417 415 434 422
4 433 431 435 436
4 434 432 437 438
4 420 433 436 439
4 422 434 438 440
4 421 420 439 441
4 423 422 440 442
4 424 421 441 443
4 425 423 442 444
4 426 424 443 445
4 427 425 444 446
4 429 428 447 448
4 430 426 445 449
4 431 427 446 435
4 432 429 448 437
4 445 443 450 451
4 446 444 452 453
4 448 447 454 455
4 449 445 451 456
4 435 446 453 457
4 437 448 455 458
4 436 435 457 459
4 438 437 458 460
4 439 436 459 461
4 440 438 460 462
4 441 439 461 463
4 442 440 462 464
4 443 441 463 450
4 444 442 464 452
4 462 460 465 466
4 463 461 467 468
4 464 462 466 469
4 450 463 468 470
4 452 464 469 471
4 451 450 470 472
4 453 452 471 473
4 455 454 474 475
4 456 451 472 476
4 457 453 473 477
4 458 455 475 478
4 459 457 477 479
4 460 458 478 465
4 461 459 479 467
3 480 28 29
3 9 481 10
3 10 481 36
3 480 29 38
3 36 481 56
3 480 38 58
3 480 58 65
3 56 481 62
3 62 481 83
3 480 65 85
3 480 85 104
3 83 481 102
3 480 104 111
3 102 481 109
3 109 481 128
3 480 111 130
3 480 130 149
3 128 481 147
3 480 149 156
3 147 481 154
3 154 481 173
3 480 156 175
3 480 175 194
3 173 481 193
3 193 481 200
3 480 194 202
3 200 481 220
3 480 202 222
3 480 222 226
3 220 481 239
3 239 481 246
3 480 226 248
3 246 481 265
3 480 248 267
3 480 267 271
3 265 481 284
3 284 481 291
3 480 271 293
3 291 481 310
3 480 293 312
3 480 312 318
3 310 481 315
3 315 481 337
3 480 318 339
3 337 481 357
3 480 339 359
3 480 359 366
3 357 481 364
3 364 481 383
3 480 366 385
3 480 385 404
3 383 481 402
3 480 404 411
3 402 481 409
3 409 481 428
3 480 411 430
3 480 430 449
3 428 481 447
3 447 481 454
3 480 449 456
3 454 481 474
3 480 456 476
4 477 473 26 1
4 478 475 8 5
3 480 476 28
4 1 0 479 477
4 465 478 5 4
4 0 12 467 479
4 466 465 4 14
4 468 467 12 16
4 469 466 14 18
4 470 468 16 20
4 471 469 18 22
3 481 9 474
4 472 470 20 24
4 473 471 22 26
4 9 8 475 474
4 476 472 24 28
