ply
format ascii 1.0
comment Created by Blender 2.66 (sub 1) - www.blender.org, source file: ''
element vertex 482
property float x
property float y
property float z
property float nx
property float ny
property float nz
element face 512
property list uchar uint vertex_indices
end_header
-0.946252 -0.358132 -0.494517 -0.924741 0.380535 0.000000
-0.972612 -0.445029 -0.494517 -0.980987 0.193915 0.000000
-0.963882 -0.445029 -0.405884 -0.962157 0.193915 0.191382
-0.938029 -0.358132 -0.411027 -0.906980 0.380535 0.180395
-0.845839 -0.862943 -0.494517 -0.710135 -0.704031 0.000000
-0.775644 -0.920551 -0.494517 -0.559771 -0.828639 0.000000
-0.770699 -0.920551 -0.444311 -0.548997 -0.828639 0.109195
-0.839545 -0.862943 -0.430616 -0.696493 -0.704031 0.138524
-0.695560 -0.963357 -0.494517 -0.387860 -0.921690 0.000000
-0.608663 -0.989716 -0.494517 -0.200964 -0.979583 0.000000
-0.606927 -0.989716 -0.476887 -0.197089 -0.979583 0.039186
-0.692154 -0.963357 -0.459934 -0.380413 -0.921690 0.075655
-0.903446 -0.278048 -0.494517 -0.833338 0.552751 0.000000
-0.896045 -0.278048 -0.419378 -0.817316 0.552751 0.162572
-0.903446 -0.792749 -0.494517 -0.833338 -0.552751 0.000000
-0.896045 -0.792749 -0.419378 -0.817316 -0.552751 0.162572
-0.845839 -0.207853 -0.494517 -0.710135 0.704031 0.000000
-0.839545 -0.207853 -0.430616 -0.696493 0.704031 0.138524
-0.946252 -0.712664 -0.494517 -0.924741 -0.380535 0.000000
-0.938029 -0.712664 -0.411027 -0.906980 -0.380535 0.180395
-0.775644 -0.150246 -0.494517 -0.559771 0.828639 0.000000
-0.770699 -0.150246 -0.444311 -0.548997 0.828639 0.109195
-0.972612 -0.625768 -0.494517 -0.980987 -0.193915 0.000000
-0.963882 -0.625768 -0.405884 -0.962157 -0.193915 0.191382
-0.695560 -0.107440 -0.494517 -0.387860 0.921690 0.000000
-0.692154 -0.107440 -0.459934 -0.380413 0.921690 0.075655
-0.981512 -0.535398 -0.494517 -1.000000 0.000000 0.000000
-0.972612 -0.535398 -0.404148 -0.980773 0.000000 0.195074
-0.608663 -0.081080 -0.494517 -0.200964 0.979583 0.000000
-0.606927 -0.081080 -0.476887 -0.197089 0.979583 0.039186
-0.820906 -0.207853 -0.369171 -0.656056 0.704031 0.271737
-0.756054 -0.150246 -0.396033 -0.517136 0.828639 0.214209
-0.913676 -0.712664 -0.330745 -0.854366 -0.380535 0.353862
-0.938029 -0.625768 -0.320657 -0.906339 -0.193915 0.375408
-0.682066 -0.107440 -0.426680 -0.358348 0.921690 0.148412
-0.946252 -0.535398 -0.317251 -0.923856 0.000000 0.382672
-0.601784 -0.989716 -0.459934 -0.185644 -0.979583 0.076907
-0.682066 -0.963357 -0.426680 -0.358348 -0.921690 0.148412
-0.601784 -0.081080 -0.459934 -0.185644 0.979583 0.076907
-0.938029 -0.445029 -0.320657 -0.906339 0.193915 0.375408
-0.756055 -0.920551 -0.396033 -0.517167 -0.828639 0.214209
-0.913675 -0.358132 -0.330745 -0.854366 0.380535 0.353862
-0.820906 -0.862943 -0.369171 -0.656056 -0.704031 0.271737
-0.874128 -0.278048 -0.347126 -0.769890 0.552751 0.318888
-0.874128 -0.792749 -0.347126 -0.769890 -0.552751 0.318888
-0.732273 -0.920551 -0.351541 -0.465438 -0.828639 0.310984
-0.790637 -0.862943 -0.312543 -0.590442 -0.704031 0.394513
-0.874128 -0.358132 -0.256756 -0.768914 0.380535 0.513749
-0.838536 -0.278048 -0.280538 -0.692892 0.552751 0.462966
-0.838536 -0.792749 -0.280538 -0.692892 -0.552751 0.462966
-0.790637 -0.207853 -0.312543 -0.590442 0.704031 0.394513
-0.874128 -0.712664 -0.256756 -0.768914 -0.380535 0.513749
-0.732273 -0.150246 -0.351541 -0.465407 0.828639 0.310984
-0.896045 -0.625768 -0.242112 -0.815668 -0.193915 0.545000
-0.665685 -0.107440 -0.396033 -0.322489 0.921690 0.215491
-0.903446 -0.535398 -0.237166 -0.831446 0.000000 0.555559
-0.593433 -0.989716 -0.444310 -0.167089 -0.979583 0.111637
-0.665685 -0.963357 -0.396033 -0.322489 -0.921690 0.215491
-0.593433 -0.081080 -0.444311 -0.167089 0.979583 0.111637
-0.896045 -0.445029 -0.242112 -0.815668 0.193915 0.545000
-0.839545 -0.625768 -0.173266 -0.693655 -0.193915 0.693655
-0.845839 -0.535398 -0.166972 -0.707083 0.000000 0.707083
-0.582194 -0.989716 -0.430616 -0.142094 -0.979583 0.142094
-0.643640 -0.963357 -0.369171 -0.274270 -0.921690 0.274270
-0.643640 -0.107440 -0.369171 -0.274270 0.921690 0.274270
-0.582194 -0.081080 -0.430616 -0.142094 0.979583 0.142094
-0.839545 -0.445029 -0.173266 -0.693655 0.193915 0.693655
-0.700268 -0.920551 -0.312543 -0.395795 -0.828639 0.395795
-0.820906 -0.358132 -0.191905 -0.653890 0.380535 0.653890
-0.749903 -0.862943 -0.262908 -0.502121 -0.704031 0.502121
-0.790637 -0.278048 -0.222173 -0.589251 0.552751 0.589251
-0.790637 -0.792749 -0.222173 -0.589251 -0.552751 0.589251
-0.749903 -0.207853 -0.262908 -0.502121 0.704031 0.502121
-0.820906 -0.712664 -0.191905 -0.653890 -0.380535 0.653890
-0.700268 -0.150246 -0.312543 -0.395795 0.828639 0.395795
-0.732273 -0.278048 -0.174275 -0.462966 0.552751 0.692892
-0.700268 -0.207853 -0.222173 -0.394513 0.704031 0.590442
-0.732273 -0.792749 -0.174275 -0.462966 -0.552751 0.692892
-0.756054 -0.712664 -0.138683 -0.513749 -0.380535 0.768914
-0.661270 -0.150246 -0.280538 -0.310984 0.828639 0.465407
-0.770699 -0.625768 -0.116765 -0.545000 -0.193915 0.815668
-0.616777 -0.107440 -0.347126 -0.215491 0.921690 0.322489
-0.775644 -0.535398 -0.109365 -0.555559 0.000000 0.831446
-0.568500 -0.989717 -0.419378 -0.111637 -0.979583 0.167089
-0.616777 -0.963357 -0.347126 -0.215491 -0.921690 0.322489
-0.568500 -0.081080 -0.419378 -0.111637 0.979583 0.167089
-0.770699 -0.445029 -0.116765 -0.545000 0.193915 0.815668
-0.661270 -0.920551 -0.280538 -0.310984 -0.828639 0.465407
-0.756054 -0.358132 -0.138683 -0.513749 0.380535 0.768914
-0.700268 -0.862943 -0.222173 -0.394513 -0.704031 0.590442
-0.692153 -0.445029 -0.074782 -0.375408 0.193915 0.906339
-0.682066 -0.358132 -0.099135 -0.353893 0.380535 0.854366
-0.616777 -0.920551 -0.256756 -0.214209 -0.828639 0.517167
-0.643640 -0.862943 -0.191905 -0.271737 -0.704031 0.656056
-0.665685 -0.278048 -0.138683 -0.318888 0.552751 0.769890
-0.665685 -0.792749 -0.138683 -0.318888 -0.552751 0.769890
-0.643640 -0.207853 -0.191905 -0.271737 0.704031 0.656056
-0.682066 -0.712664 -0.099135 -0.353893 -0.380535 0.854366
-0.616777 -0.150246 -0.256756 -0.214209 0.828639 0.517136
-0.692153 -0.625768 -0.074782 -0.375408 -0.193915 0.906339
-0.586130 -0.107440 -0.330745 -0.148412 0.921690 0.358348
-0.695560 -0.535398 -0.066559 -0.382672 0.000000 0.923856
-0.552876 -0.989716 -0.411026 -0.076907 -0.979583 0.185644
-0.586130 -0.963357 -0.330744 -0.148412 -0.921690 0.358348
-0.552876 -0.081080 -0.411027 -0.076907 0.979583 0.185644
-0.568500 -0.150246 -0.242112 -0.109195 0.828639 0.548997
-0.552876 -0.107440 -0.320657 -0.075655 0.921690 0.380413
-0.606926 -0.625768 -0.048929 -0.191382 -0.193915 0.962157
-0.608663 -0.535398 -0.040199 -0.195074 0.000000 0.980773
-0.535924 -0.989717 -0.405884 -0.039186 -0.979583 0.197089
-0.552876 -0.963357 -0.320657 -0.075655 -0.921690 0.380413
-0.535924 -0.081080 -0.405884 -0.039186 0.979583 0.197089
-0.606926 -0.445029 -0.048929 -0.191382 0.193915 0.962157
-0.568500 -0.920551 -0.242111 -0.109195 -0.828639 0.548997
-0.601784 -0.358132 -0.074782 -0.180395 0.380535 0.906980
-0.582194 -0.862943 -0.173266 -0.138524 -0.704031 0.696493
-0.593433 -0.278048 -0.116765 -0.162572 0.552751 0.817316
-0.593433 -0.792749 -0.116765 -0.162572 -0.552751 0.817316
-0.582194 -0.207853 -0.173266 -0.138524 0.704031 0.696493
-0.601784 -0.712664 -0.074782 -0.180395 -0.380505 0.906980
-0.518293 -0.278048 -0.109365 0.000000 0.552751 0.833338
-0.518293 -0.207853 -0.166972 0.000000 0.704031 0.710135
-0.518293 -0.792749 -0.109365 0.000000 -0.552751 0.833338
-0.518293 -0.712664 -0.066559 0.000000 -0.380535 0.924741
-0.518293 -0.150246 -0.237167 0.000000 0.828639 0.559771
-0.518293 -0.625768 -0.040199 0.000000 -0.193915 0.980987
-0.518293 -0.107440 -0.317251 0.000000 0.921690 0.387860
-0.518293 -0.535398 -0.031298 0.000000 0.000000 1.000000
-0.518293 -0.989716 -0.404148 0.000000 -0.979583 0.200964
-0.518293 -0.963357 -0.317251 0.000000 -0.921690 0.387860
-0.518293 -0.081080 -0.404148 0.000000 0.979583 0.200964
-0.518293 -0.445029 -0.040199 0.000000 0.193915 0.980987
-0.518293 -0.920551 -0.237166 0.000000 -0.828639 0.559771
-0.518293 -0.358132 -0.066559 0.000000 0.380535 0.924741
-0.518293 -0.862943 -0.166972 0.000000 -0.704031 0.710135
-0.429660 -0.445029 -0.048929 0.191382 0.193915 0.962157
-0.434803 -0.358132 -0.074782 0.180395 0.380535 0.906980
-0.468087 -0.920551 -0.242111 0.109195 -0.828639 0.548997
-0.454393 -0.862943 -0.173266 0.138524 -0.704031 0.696493
-0.443154 -0.278048 -0.116765 0.162572 0.552751 0.817316
-0.443154 -0.792749 -0.116765 0.162572 -0.552751 0.817316
-0.454393 -0.207853 -0.173266 0.138524 0.704031 0.696493
-0.434803 -0.712664 -0.074782 0.180395 -0.380535 0.906980
-0.468087 -0.150246 -0.242112 0.109195 0.828639 0.548997
-0.429660 -0.625768 -0.048929 0.191382 -0.193915 0.962157
-0.483711 -0.107440 -0.320657 0.075655 0.921690 0.380413
-0.427924 -0.535398 -0.040199 0.195074 0.000000 0.980773
-0.500663 -0.989716 -0.405884 0.039186 -0.979583 0.197089
-0.483711 -0.963357 -0.320657 0.075655 -0.921690 0.380413
-0.500663 -0.081080 -0.405884 0.039186 0.979583 0.197089
-0.419810 -0.150246 -0.256756 0.214209 0.828639 0.517136
-0.450457 -0.107440 -0.330745 0.148412 0.921690 0.358348
-0.344433 -0.625768 -0.074782 0.375408 -0.193915 0.906339
-0.341027 -0.535398 -0.066559 0.382672 0.000000 0.923856
-0.483711 -0.989717 -0.411027 0.076876 -0.979583 0.185644
-0.450457 -0.963357 -0.330745 0.148412 -0.921690 0.358348
-0.483711 -0.081080 -0.411027 0.076907 0.979583 0.185644
-0.344433 -0.445029 -0.074782 0.375408 0.193915 0.906339
-0.419810 -0.920551 -0.256756 0.214209 -0.828639 0.517167
-0.354521 -0.358132 -0.099135 0.353893 0.380535 0.854366
-0.392947 -0.862943 -0.191905 0.271737 -0.704031 0.656056
-0.370902 -0.278048 -0.138683 0.318888 0.552751 0.769890
-0.370902 -0.792749 -0.138683 0.318888 -0.552751 0.769890
-0.392947 -0.207853 -0.191905 0.271737 0.704031 0.656056
-0.354521 -0.712664 -0.099135 0.353893 -0.380535 0.854366
-0.304314 -0.278048 -0.174275 0.462966 0.552751 0.692892
-0.336319 -0.207853 -0.222173 0.394513 0.704031 0.590442
-0.304314 -0.792749 -0.174275 0.462966 -0.552751 0.692892
-0.280533 -0.712664 -0.138683 0.513749 -0.380535 0.768914
-0.375317 -0.150246 -0.280538 0.310984 0.828639 0.465407
-0.265888 -0.625768 -0.116765 0.545000 -0.193915 0.815668
-0.419810 -0.107440 -0.347126 0.215491 0.921690 0.322489
-0.260943 -0.535398 -0.109365 0.555559 0.000000 0.831446
-0.468087 -0.989716 -0.419378 0.111637 -0.979583 0.167089
-0.419810 -0.963357 -0.347126 0.215491 -0.921690 0.322489
-0.468087 -0.081080 -0.419378 0.111637 0.979583 0.167089
-0.265888 -0.445029 -0.116765 0.545000 0.193915 0.815668
-0.375317 -0.920551 -0.280538 0.310984 -0.828639 0.465407
-0.280533 -0.358132 -0.138683 0.513749 0.380535 0.768914
-0.336319 -0.862943 -0.222173 0.394513 -0.704031 0.590442
-0.392947 -0.963357 -0.369171 0.274270 -0.921690 0.274270
-0.336319 -0.920551 -0.312543 0.395795 -0.828639 0.395795
-0.197042 -0.445029 -0.173266 0.693655 0.193915 0.693655
-0.215681 -0.358132 -0.191905 0.653890 0.380535 0.653890
-0.286684 -0.862943 -0.262908 0.502121 -0.704031 0.502121
-0.245950 -0.278048 -0.222173 0.589251 0.552751 0.589251
-0.245950 -0.792749 -0.222173 0.589251 -0.552751 0.589251
-0.286684 -0.207853 -0.262908 0.502121 0.704031 0.502121
-0.215681 -0.712664 -0.191905 0.653890 -0.380535 0.653890
-0.336319 -0.150246 -0.312543 0.395795 0.828639 0.395795
-0.197042 -0.625768 -0.173266 0.693655 -0.193915 0.693655
-0.392947 -0.107440 -0.369171 0.274270 0.921690 0.274270
-0.190748 -0.535398 -0.166972 0.707083 0.000000 0.707083
-0.454393 -0.989717 -0.430616 0.142094 -0.979583 0.142094
-0.454393 -0.081080 -0.430616 0.142094 0.979583 0.142094
-0.162459 -0.712664 -0.256756 0.768914 -0.380535 0.513749
-0.140542 -0.625768 -0.242112 0.815668 -0.193915 0.545000
-0.304314 -0.150246 -0.351541 0.465407 0.828639 0.310984
-0.370902 -0.107440 -0.396033 0.322489 0.921690 0.215491
-0.133141 -0.535398 -0.237167 0.831446 0.000000 0.555559
-0.443154 -0.989716 -0.444311 0.167089 -0.979583 0.111606
-0.370902 -0.963357 -0.396033 0.322489 -0.921690 0.215491
-0.443154 -0.081080 -0.444311 0.167089 0.979583 0.111637
-0.140542 -0.445029 -0.242112 0.815668 0.193915 0.545000
-0.304314 -0.920551 -0.351541 0.465438 -0.828639 0.310984
-0.162459 -0.358132 -0.256756 0.768914 0.380535 0.513749
-0.245950 -0.862943 -0.312543 0.590442 -0.704031 0.394513
-0.198051 -0.278048 -0.280538 0.692892 0.552751 0.462966
-0.198051 -0.792749 -0.280538 0.692892 -0.552751 0.462966
-0.245950 -0.207853 -0.312543 0.590442 0.704031 0.394513
-0.122912 -0.358132 -0.330745 0.854366 0.380535 0.353862
-0.162459 -0.278048 -0.347126 0.769890 0.552751 0.318888
-0.215681 -0.862943 -0.369171 0.656056 -0.704031 0.271737
-0.162459 -0.792749 -0.347126 0.769890 -0.552751 0.318888
-0.215681 -0.207853 -0.369171 0.656056 0.704031 0.271737
-0.122912 -0.712664 -0.330745 0.854366 -0.380535 0.353862
-0.280533 -0.150246 -0.396033 0.517136 0.828639 0.214209
-0.098558 -0.625768 -0.320657 0.906339 -0.193915 0.375408
-0.354521 -0.107440 -0.426680 0.358348 0.921690 0.148412
-0.090335 -0.535398 -0.317251 0.923856 0.000000 0.382672
-0.434803 -0.989716 -0.459934 0.185644 -0.979583 0.076907
-0.354521 -0.963357 -0.426680 0.358348 -0.921690 0.148412
-0.434803 -0.081080 -0.459934 0.185644 0.979583 0.076907
-0.098558 -0.445029 -0.320657 0.906339 0.193915 0.375408
-0.280533 -0.920551 -0.396033 0.517167 -0.828639 0.214209
-0.344433 -0.107440 -0.459934 0.380413 0.921690 0.075655
-0.429660 -0.081080 -0.476887 0.197089 0.979583 0.039186
-0.063975 -0.535398 -0.404148 0.980773 0.000000 0.195074
-0.072705 -0.445029 -0.405884 0.962157 0.193915 0.191382
-0.344433 -0.963357 -0.459934 0.380413 -0.921690 0.075655
-0.265888 -0.920551 -0.444311 0.548997 -0.828639 0.109195
-0.098558 -0.358132 -0.411027 0.906980 0.380535 0.180395
-0.197042 -0.862943 -0.430616 0.696493 -0.704031 0.138524
-0.140542 -0.278048 -0.419378 0.817316 0.552751 0.162572
-0.140542 -0.792749 -0.419378 0.817316 -0.552751 0.162572
-0.197042 -0.207853 -0.430616 0.696493 0.704031 0.138524
-0.098558 -0.712664 -0.411027 0.906980 -0.380535 0.180395
-0.265888 -0.150246 -0.444311 0.548997 0.828639 0.109195
-0.072705 -0.625768 -0.405884 0.962157 -0.193915 0.191382
-0.429660 -0.989716 -0.476887 0.197089 -0.979583 0.039186
-0.190748 -0.207853 -0.494517 0.710135 0.704031 0.000000
-0.260943 -0.150246 -0.494517 0.559771 0.828639 0.000000
-0.090335 -0.712664 -0.494517 0.924741 -0.380505 0.000000
-0.063976 -0.625768 -0.494517 0.980987 -0.193915 0.000000
-0.341027 -0.107440 -0.494517 0.387860 0.921690 0.000000
-0.055075 -0.535398 -0.494517 1.000000 0.000000 0.000000
-0.427924 -0.989716 -0.494517 0.200964 -0.979583 0.000000
-0.341027 -0.963357 -0.494517 0.387860 -0.921690 0.000000
-0.427924 -0.081080 -0.494517 0.200964 0.979583 0.000000
-0.063976 -0.445029 -0.494517 0.980987 0.193915 0.000000
-0.260943 -0.920551 -0.494517 0.559771 -0.828639 0.000000
-0.090335 -0.358132 -0.494517 0.924741 0.380535 0.000000
-0.190748 -0.862943 -0.494517 0.710135 -0.704031 0.000000
-0.133141 -0.278048 -0.494517 0.833338 0.552751 0.000000
-0.133141 -0.792749 -0.494517 0.833338 -0.552751 0.000000
-0.098558 -0.358132 -0.578008 0.906980 0.380535 -0.180395
-0.140542 -0.278048 -0.569657 0.817316 0.552751 -0.162572
-0.197042 -0.862943 -0.558418 0.696493 -0.704031 -0.138524
-0.140542 -0.792749 -0.569657 0.817316 -0.552751 -0.162572
-0.197042 -0.207853 -0.558418 0.696493 0.704031 -0.138524
-0.098558 -0.712664 -0.578008 0.906980 -0.380535 -0.180395
-0.265888 -0.150246 -0.544724 0.548997 0.828639 -0.109195
-0.072705 -0.625768 -0.583150 0.962157 -0.193915 -0.191382
-0.344433 -0.107440 -0.529100 0.380413 0.921690 -0.075655
-0.063976 -0.535398 -0.584887 0.980773 0.000000 -0.195074
-0.429660 -0.989716 -0.512147 0.197089 -0.979583 -0.039186
-0.344433 -0.963357 -0.529100 0.380413 -0.921690 -0.075655
-0.429660 -0.081080 -0.512147 0.197089 0.979583 -0.039186
-0.072705 -0.445029 -0.583150 0.962157 0.193915 -0.191382
-0.265888 -0.920551 -0.544724 0.548997 -0.828639 -0.109195
-0.354521 -0.107440 -0.562354 0.358348 0.921690 -0.148412
-0.434803 -0.081080 -0.529100 0.185644 0.979583 -0.076907
-0.090335 -0.535398 -0.671783 0.923856 0.000000 -0.382672
-0.098558 -0.445029 -0.668377 0.906339 0.193915 -0.375408
-0.354521 -0.963357 -0.562354 0.358348 -0.921690 -0.148412
-0.280533 -0.920551 -0.593001 0.517167 -0.828639 -0.214209
-0.122912 -0.358132 -0.658290 0.854366 0.380535 -0.353893
-0.215681 -0.862943 -0.619863 0.656056 -0.704031 -0.271737
-0.162459 -0.278048 -0.641909 0.769890 0.552751 -0.318888
-0.162459 -0.792749 -0.641909 0.769890 -0.552751 -0.318888
-0.215681 -0.207853 -0.619863 0.656056 0.704031 -0.271737
-0.122912 -0.712664 -0.658290 0.854366 -0.380535 -0.353893
-0.280533 -0.150246 -0.593001 0.517136 0.828639 -0.214209
-0.098558 -0.625768 -0.668377 0.906339 -0.193915 -0.375408
-0.434803 -0.989716 -0.529100 0.185644 -0.979583 -0.076907
-0.245950 -0.207853 -0.676491 0.590442 0.704031 -0.394513
-0.304314 -0.150246 -0.637493 0.465407 0.828639 -0.310984
-0.162459 -0.712664 -0.732278 0.768914 -0.380535 -0.513749
-0.140542 -0.625768 -0.746923 0.815668 -0.193915 -0.545000
-0.370902 -0.107440 -0.593001 0.322489 0.921690 -0.215491
-0.133141 -0.535398 -0.751868 0.831446 0.000000 -0.555559
-0.443154 -0.989716 -0.544724 0.167089 -0.979583 -0.111637
-0.370902 -0.963357 -0.593001 0.322489 -0.921690 -0.215491
-0.443154 -0.081080 -0.544724 0.167089 0.979583 -0.111637
-0.140542 -0.445029 -0.746923 0.815668 0.193915 -0.545000
-0.304314 -0.920551 -0.637493 0.465438 -0.828639 -0.310984
-0.162459 -0.358132 -0.732278 0.768914 0.380535 -0.513749
-0.245950 -0.862943 -0.676491 0.590442 -0.704031 -0.394513
-0.198051 -0.278048 -0.708496 0.692892 0.552751 -0.462966
-0.198051 -0.792749 -0.708496 0.692892 -0.552751 -0.462966
-0.215681 -0.358132 -0.797129 0.653890 0.380535 -0.653890
-0.245950 -0.278048 -0.766861 0.589251 0.552751 -0.589251
-0.286684 -0.862943 -0.726126 0.502121 -0.704031 -0.502121
-0.245950 -0.792749 -0.766861 0.589251 -0.552751 -0.589251
-0.286684 -0.207853 -0.726127 0.502121 0.704031 -0.502121
-0.215681 -0.712664 -0.797129 0.653890 -0.380535 -0.653890
-0.336319 -0.150246 -0.676491 0.395795 0.828639 -0.395795
-0.197042 -0.625768 -0.815769 0.693655 -0.193915 -0.693655
-0.392947 -0.107440 -0.619863 0.274270 0.921690 -0.274270
-0.190749 -0.535398 -0.822062 0.707083 0.000000 -0.707083
-0.454393 -0.989716 -0.558418 0.142094 -0.979583 -0.142094
-0.392947 -0.963357 -0.619863 0.274270 -0.921690 -0.274270
-0.454393 -0.081080 -0.558418 0.142094 0.979583 -0.142094
-0.197042 -0.445029 -0.815769 0.693655 0.193915 -0.693655
-0.336319 -0.920551 -0.676491 0.395795 -0.828639 -0.395795
-0.468087 -0.989716 -0.569657 0.111667 -0.979583 -0.167089
-0.419810 -0.963357 -0.641909 0.215491 -0.921690 -0.322489
-0.419810 -0.107440 -0.641909 0.215491 0.921690 -0.322489
-0.468087 -0.081080 -0.569657 0.111637 0.979583 -0.167089
-0.260943 -0.535398 -0.879669 0.555559 0.000000 -0.831446
-0.265888 -0.445029 -0.872269 0.545000 0.193915 -0.815668
-0.375317 -0.920551 -0.708496 0.310984 -0.828639 -0.465438
-0.280533 -0.358132 -0.850352 0.513749 0.380535 -0.768914
-0.336319 -0.862943 -0.766861 0.394513 -0.704031 -0.590442
-0.304314 -0.278048 -0.814760 0.462966 0.552751 -0.692892
-0.304314 -0.792749 -0.814760 0.462966 -0.552751 -0.692892
-0.336319 -0.207853 -0.766861 0.394513 0.704031 -0.590442
-0.280533 -0.712664 -0.850352 0.513749 -0.380535 -0.768914
-0.375317 -0.150246 -0.708496 0.310984 0.828639 -0.465407
-0.265888 -0.625768 -0.872269 0.545000 -0.193915 -0.815668
-0.370902 -0.792749 -0.850351 0.318888 -0.552751 -0.769890
-0.354521 -0.712664 -0.889899 0.353862 -0.380535 -0.854366
-0.392947 -0.207853 -0.797129 0.271737 0.704031 -0.656056
-0.419810 -0.150246 -0.732278 0.214209 0.828639 -0.517136
-0.344434 -0.625768 -0.914252 0.375408 -0.193915 -0.906339
-0.450457 -0.107440 -0.658290 0.148412 0.921690 -0.358348
-0.341027 -0.535398 -0.922475 0.382672 0.000000 -0.923856
-0.483711 -0.989717 -0.578008 0.076876 -0.979583 -0.185644
-0.450457 -0.963357 -0.658290 0.148412 -0.921690 -0.358348
-0.483711 -0.081080 -0.578008 0.076876 0.979583 -0.185644
-0.344434 -0.445029 -0.914252 0.375408 0.193915 -0.906339
-0.419810 -0.920551 -0.732278 0.214209 -0.828639 -0.517167
-0.354521 -0.358132 -0.889899 0.353862 0.380505 -0.854366
-0.392947 -0.862943 -0.797129 0.271737 -0.704031 -0.656056
-0.370902 -0.278048 -0.850352 0.318888 0.552751 -0.769890
-0.429661 -0.445029 -0.940106 0.191382 0.193915 -0.962157
-0.434803 -0.358132 -0.914252 0.180395 0.380535 -0.906980
-0.468087 -0.920551 -0.746923 0.109195 -0.828639 -0.548997
-0.454393 -0.862943 -0.815768 0.138524 -0.704031 -0.696493
-0.443154 -0.278048 -0.872269 0.162572 0.552751 -0.817316
-0.443154 -0.792749 -0.872269 0.162572 -0.552751 -0.817316
-0.454393 -0.207853 -0.815769 0.138524 0.704031 -0.696493
-0.434803 -0.712664 -0.914252 0.180395 -0.380535 -0.906980
-0.468087 -0.150246 -0.746923 0.109195 0.828639 -0.548997
-0.429661 -0.625768 -0.940106 0.191382 -0.193915 -0.962157
-0.483711 -0.107440 -0.668377 0.075655 0.921690 -0.380413
-0.427924 -0.535398 -0.948835 0.195074 0.000000 -0.980773
-0.500663 -0.989716 -0.583150 0.039186 -0.979583 -0.197089
-0.483711 -0.963357 -0.668377 0.075655 -0.921690 -0.380413
-0.500663 -0.081080 -0.583150 0.039186 0.979583 -0.197089
-0.518293 -0.150246 -0.751868 0.000000 0.828639 -0.559771
-0.518293 -0.107440 -0.671783 0.000000 0.921690 -0.387860
-0.518293 -0.625768 -0.948835 0.000000 -0.193915 -0.980987
-0.518293 -0.535398 -0.957736 0.000000 0.000000 -1.000000
-0.518293 -0.989716 -0.584887 0.000000 -0.979583 -0.200964
-0.518293 -0.963357 -0.671783 0.000000 -0.921690 -0.387860
-0.518293 -0.081080 -0.584887 0.000000 0.979583 -0.200964
-0.518293 -0.445029 -0.948835 0.000000 0.193915 -0.980987
-0.518293 -0.920551 -0.751868 0.000000 -0.828639 -0.559771
-0.518293 -0.358132 -0.922475 0.000000 0.380535 -0.924741
-0.518293 -0.862943 -0.822062 0.000000 -0.704031 -0.710135
-0.518293 -0.278048 -0.879669 0.000000 0.552751 -0.833338
-0.518293 -0.792749 -0.879669 0.000000 -0.552751 -0.833338
-0.518293 -0.207853 -0.822062 0.000000 0.704031 -0.710135
-0.518293 -0.712664 -0.922475 0.000000 -0.380535 -0.924741
-0.593433 -0.278048 -0.872269 -0.162572 0.552751 -0.817316
-0.582194 -0.207853 -0.815769 -0.138524 0.704031 -0.696493
-0.593433 -0.792749 -0.872269 -0.162572 -0.552751 -0.817316
-0.601784 -0.712664 -0.914252 -0.180395 -0.380535 -0.906980
-0.568500 -0.150246 -0.746923 -0.109195 0.828639 -0.548997
-0.606927 -0.625768 -0.940105 -0.191382 -0.193915 -0.962157
-0.552876 -0.107440 -0.668377 -0.075655 0.921690 -0.380413
-0.608663 -0.535398 -0.948835 -0.195074 0.000000 -0.980773
-0.535924 -0.989716 -0.583150 -0.039186 -0.979583 -0.197089
-0.552876 -0.963357 -0.668377 -0.075655 -0.921690 -0.380413
-0.535924 -0.081080 -0.583150 -0.039186 0.979583 -0.197089
-0.606927 -0.445029 -0.940105 -0.191382 0.193915 -0.962157
-0.568500 -0.920551 -0.746923 -0.109195 -0.828639 -0.548997
-0.601784 -0.358132 -0.914252 -0.180395 0.380535 -0.906980
-0.582194 -0.862943 -0.815768 -0.138524 -0.704031 -0.696493
-0.692154 -0.445029 -0.914252 -0.375408 0.193915 -0.906339
-0.682066 -0.358132 -0.889899 -0.353862 0.380535 -0.854366
-0.616777 -0.920551 -0.732278 -0.214209 -0.828639 -0.517167
-0.643640 -0.862943 -0.797129 -0.271737 -0.704031 -0.656056
-0.665685 -0.278048 -0.850351 -0.318888 0.552751 -0.769890
-0.665685 -0.792749 -0.850351 -0.318888 -0.552751 -0.769890
-0.643640 -0.207853 -0.797129 -0.271737 0.704031 -0.656056
-0.682066 -0.712664 -0.889899 -0.353893 -0.380535 -0.854366
-0.616777 -0.150246 -0.732278 -0.214209 0.828639 -0.517136
-0.692154 -0.625768 -0.914252 -0.375408 -0.193915 -0.906339
-0.586130 -0.107440 -0.658290 -0.148412 0.921690 -0.358348
-0.695560 -0.535398 -0.922475 -0.382672 0.000000 -0.923856
-0.552876 -0.989716 -0.578008 -0.076876 -0.979583 -0.185675
-0.586130 -0.963357 -0.658290 -0.148412 -0.921690 -0.358348
-0.552876 -0.081080 -0.578008 -0.076876 0.979583 -0.185644
-0.661270 -0.150246 -0.708496 -0.310984 0.828639 -0.465407
-0.616777 -0.107440 -0.641909 -0.215491 0.921690 -0.322489
-0.770699 -0.625768 -0.872269 -0.545000 -0.193915 -0.815668
-0.775644 -0.535398 -0.879669 -0.555559 0.000000 -0.831446
-0.568500 -0.989717 -0.569657 -0.111637 -0.979583 -0.167089
-0.616777 -0.963357 -0.641909 -0.215491 -0.921690 -0.322489
-0.568500 -0.081080 -0.569657 -0.111637 0.979583 -0.167089
-0.770699 -0.445029 -0.872269 -0.545000 0.193915 -0.815668
-0.661270 -0.920551 -0.708496 -0.310984 -0.828639 -0.465438
-0.756054 -0.358132 -0.850352 -0.513749 0.380535 -0.768914
-0.700268 -0.862943 -0.766861 -0.394513 -0.704031 -0.590442
-0.732273 -0.278048 -0.814759 -0.462966 0.552751 -0.692892
-0.732273 -0.792749 -0.814759 -0.462966 -0.552751 -0.692892
-0.700268 -0.207853 -0.766861 -0.394513 0.704031 -0.590442
-0.756054 -0.712664 -0.850351 -0.513749 -0.380535 -0.768914
-0.790637 -0.278048 -0.766861 -0.589251 0.552751 -0.589251
-0.749903 -0.207853 -0.726126 -0.502121 0.704031 -0.502121
-0.790637 -0.792749 -0.766861 -0.589251 -0.552751 -0.589251
-0.820906 -0.712664 -0.797129 -0.653890 -0.380535 -0.653890
-0.700268 -0.150246 -0.676491 -0.395795 0.828639 -0.395795
-0.839545 -0.625768 -0.815768 -0.693655 -0.193915 -0.693655
-0.643640 -0.107440 -0.619863 -0.274270 0.921690 -0.274270
-0.845838 -0.535398 -0.822062 -0.707083 0.000000 -0.707083
-0.582194 -0.989716 -0.558418 -0.142094 -0.979583 -0.142064
-0.643640 -0.963357 -0.619863 -0.274270 -0.921690 -0.274270
-0.582194 -0.081080 -0.558418 -0.142094 0.979583 -0.142094
-0.839545 -0.445029 -0.815768 -0.693655 0.193915 -0.693655
-0.700268 -0.920551 -0.676491 -0.395795 -0.828639 -0.395795
-0.820906 -0.358132 -0.797129 -0.653890 0.380535 -0.653890
-0.749903 -0.862943 -0.726126 -0.502121 -0.704031 -0.502121
-0.896045 -0.445029 -0.746923 -0.815668 0.193915 -0.545000
-0.874128 -0.358132 -0.732278 -0.768914 0.380535 -0.513749
-0.732273 -0.920551 -0.637493 -0.465438 -0.828639 -0.310984
-0.790637 -0.862943 -0.676491 -0.590442 -0.704031 -0.394513
-0.838536 -0.278048 -0.708496 -0.692892 0.552751 -0.462966
-0.838536 -0.792749 -0.708496 -0.692892 -0.552751 -0.462966
-0.790637 -0.207853 -0.676491 -0.590442 0.704031 -0.394513
-0.874128 -0.712664 -0.732278 -0.768914 -0.380535 -0.513749
-0.732273 -0.150246 -0.637493 -0.465407 0.828639 -0.310984
-0.896045 -0.625768 -0.746923 -0.815668 -0.193915 -0.545000
-0.665685 -0.107440 -0.593001 -0.322489 0.921690 -0.215491
-0.903446 -0.535398 -0.751867 -0.831446 0.000000 -0.555559
-0.593433 -0.989716 -0.544724 -0.167089 -0.979583 -0.111637
-0.665685 -0.963357 -0.593001 -0.322489 -0.921690 -0.215491
-0.593433 -0.081080 -0.544724 -0.167089 0.979583 -0.111637
-0.756054 -0.150246 -0.593001 -0.517136 0.828639 -0.214209
-0.682066 -0.107440 -0.562354 -0.358348 0.921690 -0.148412
-0.938029 -0.625768 -0.668377 -0.906339 -0.193915 -0.375408
-0.946252 -0.535398 -0.671783 -0.923856 0.000000 -0.382672
-0.601784 -0.989716 -0.529100 -0.185644 -0.979583 -0.076907
-0.682066 -0.963357 -0.562354 -0.358348 -0.921690 -0.148412
-0.601784 -0.081080 -0.529100 -0.185644 0.979583 -0.076876
-0.938029 -0.445029 -0.668377 -0.906339 0.193915 -0.375408
-0.756054 -0.920551 -0.593001 -0.517167 -0.828639 -0.214209
-0.913675 -0.358132 -0.658290 -0.854366 0.380535 -0.353893
-0.820906 -0.862943 -0.619863 -0.656056 -0.704031 -0.271737
-0.874128 -0.278048 -0.641909 -0.769890 0.552751 -0.318888
-0.874128 -0.792749 -0.641908 -0.769890 -0.552751 -0.318888
-0.820906 -0.207853 -0.619863 -0.656056 0.704031 -0.271737
-0.913675 -0.712664 -0.658290 -0.854366 -0.380535 -0.353893
-0.839545 -0.862943 -0.558418 -0.696493 -0.704031 -0.138524
-0.896045 -0.792749 -0.569657 -0.817316 -0.552751 -0.162572
-0.896045 -0.278048 -0.569657 -0.817316 0.552751 -0.162572
-0.839545 -0.207853 -0.558418 -0.696493 0.704031 -0.138524
-0.938029 -0.712664 -0.578008 -0.906980 -0.380535 -0.180395
-0.770699 -0.150246 -0.544724 -0.548997 0.828639 -0.109195
-0.963882 -0.625768 -0.583150 -0.962157 -0.193915 -0.191382
-0.692154 -0.107440 -0.529100 -0.380413 0.921690 -0.075655
-0.972611 -0.535398 -0.584886 -0.980773 0.000000 -0.195074
-0.606927 -0.989716 -0.512147 -0.197089 -0.979583 -0.039186
-0.692154 -0.963357 -0.529100 -0.380413 -0.921690 -0.075655
-0.606926 -0.081080 -0.512147 -0.197089 0.979583 -0.039186
-0.963882 -0.445029 -0.583150 -0.962157 0.193915 -0.191382
-0.770699 -0.920551 -0.544724 -0.548997 -0.828639 -0.109195
-0.938029 -0.358132 -0.578008 -0.906980 0.380535 -0.180395
-0.518293 -0.072180 -0.494517 0.000000 1.000000 0.000000
-0.518293 -0.998617 -0.494517 0.000000 -1.000000 0.000000
4 0 1 2 3
4 4 5 6 7
4 8 9 10 11
4 12 0 3 13
4 14 4 7 15
4 16 12 13 17
4 18 14 15 19
4 20 16 17 21
4 22 18 19 23
4 24 20 21 25
4 26 22 23 27
4 28 24 25 29
4 1 26 27 2
4 5 8 11 6
4 21 17 30 31
4 23 19 32 33
4 25 21 31 34
4 27 23 33 35
4 11 10 36 37
4 29 25 34 38
4 2 27 35 39
4 6 11 37 40
4 3 2 39 41
4 7 6 40 42
4 13 3 41 43
4 15 7 42 44
4 17 13 43 30
4 19 15 44 32
4 42 40 45 46
4 43 41 47 48
4 44 42 46 49
4 30 43 48 50
4 32 44 49 51
4 31 30 50 52
4 33 32 51 53
4 34 31 52 54
4 35 33 53 55
4 37 36 56 57
4 38 34 54 58
4 39 35 55 59
4 40 37 57 45
4 41 39 59 47
4 55 53 60 61
4 57 56 62 63
4 58 54 64 65
4 59 55 61 66
4 45 57 63 67
4 47 59 66 68
4 46 45 67 69
4 48 47 68 70
4 49 46 69 71
4 50 48 70 72
4 51 49 71 73
4 52 50 72 74
4 53 51 73 60
4 54 52 74 64
4 72 70 75 76
4 73 71 77 78
4 74 72 76 79
4 60 73 78 80
4 64 74 79 81
4 61 60 80 82
4 63 62 83 84
4 65 64 81 85
4 66 61 82 86
4 67 63 84 87
4 68 66 86 88
4 69 67 87 89
4 70 68 88 75
4 71 69 89 77
4 88 86 90 91
4 89 87 92 93
4 75 88 91 94
4 77 89 93 95
4 76 75 94 96
4 78 77 95 97
4 79 76 96 98
4 80 78 97 99
4 81 79 98 100
4 82 80 99 101
4 84 83 102 103
4 85 81 100 104
4 86 82 101 90
4 87 84 103 92
4 100 98 105 106
4 101 99 107 108
4 103 102 109 110
4 104 100 106 111
4 90 101 108 112
4 92 103 110 113
4 91 90 112 114
4 93 92 113 115
4 94 91 114 116
4 95 93 115 117
4 96 94 116 118
4 97 95 117 119
4 98 96 118 105
4 99 97 119 107
4 118 116 120 121
4 119 117 122 123
4 105 118 121 124
4 107 119 123 125
4 106 105 124 126
4 108 107 125 127
4 110 109 128 129
4 111 106 126 130
4 112 108 127 131
4 113 110 129 132
4 114 112 131 133
4 115 113 132 134
4 116 114 133 120
4 117 115 134 122
4 133 131 135 136
4 134 132 137 138
4 120 133 136 139
4 122 134 138 140
4 121 120 139 141
4 123 122 140 142
4 124 121 141 143
4 125 123 142 144
4 126 124 143 145
4 127 125 144 146
4 129 128 147 148
4 130 126 145 149
4 131 127 146 135
4 132 129 148 137
4 145 143 150 151
4 146 144 152 153
4 148 147 154 155
4 149 145 151 156
4 135 146 153 157
4 137 148 155 158
4 136 135 157 159
4 138 137 158 160
4 139 136 159 161
4 140 138 160 162
4 141 139 161 163
4 142 140 162 164
4 143 141 163 150
4 144 142 164 152
4 163 161 165 166
4 164 162 167 168
4 150 163 166 169
4 152 164 168 170
4 151 150 169 171
4 153 152 170 172
4 155 154 173 174
4 156 151 171 175
4 157 153 172 176
4 158 155 174 177
4 159 157 176 178
4 160 158 177 179
4 161 159 178 165
4 162 160 179 167
4 177 174 180 181
4 178 176 182 183
4 179 177 181 184
4 165 178 183 185
4 167 179 184 186
4 166 165 185 187
4 168 167 186 188
4 169 166 187 189
4 170 168 188 190
4 171 169 189 191
4 172 170 190 192
4 174 173 193 180
4 175 171 191 194
4 176 172 192 182
4 190 188 195 196
4 191 189 197 198
4 192 190 196 199
4 180 193 200 201
4 194 191 198 202
4 182 192 199 203
4 181 180 201 204
4 183 182 203 205
4 184 181 204 206
4 185 183 205 207
4 186 184 206 208
4 187 185 207 209
4 188 186 208 195
4 189 187 209 197
4 207 205 210 211
4 208 206 212 213
4 209 207 211 214
4 195 208 213 215
4 197 209 214 216
4 196 195 215 217
4 198 197 216 218
4 199 196 217 219
4 201 200 220 221
4 202 198 218 222
4 203 199 219 223
4 204 201 221 224
4 205 203 223 210
4 206 204 224 212
4 222 218 225 226
4 223 219 227 228
4 224 221 229 230
4 210 223 228 231
4 212 224 230 232
4 211 210 231 233
4 213 212 232 234
4 214 211 233 235
4 215 213 234 236
4 216 214 235 237
4 217 215 236 238
4 218 216 237 225
4 219 217 238 227
4 221 220 239 229
4 237 235 240 241
4 238 236 242 243
4 225 237 241 244
4 227 238 243 245
4 229 239 246 247
4 226 225 244 248
4 228 227 245 249
4 230 229 247 250
4 231 228 249 251
4 232 230 250 252
4 233 231 251 253
4 234 232 252 254
4 235 233 253 240
4 236 234 254 242
4 253 251 255 256
4 254 252 257 258
4 240 253 256 259
4 242 254 258 260
4 241 240 259 261
4 243 242 260 262
4 244 241 261 263
4 245 243 262 264
4 247 246 265 266
4 248 244 263 267
4 249 245 264 268
4 250 247 266 269
4 251 249 268 255
4 252 250 269 257
4 267 263 270 271
4 268 264 272 273
4 269 266 274 275
4 255 268 273 276
4 257 269 275 277
4 256 255 276 278
4 258 257 277 279
4 259 256 278 280
4 260 258 279 281
4 261 259 280 282
4 262 260 281 283
4 263 261 282 270
4 264 262 283 272
4 266 265 284 274
4 282 280 285 286
4 283 281 287 288
4 270 282 286 289
4 272 283 288 290
4 274 284 291 292
4 271 270 289 293
4 273 272 290 294
4 275 274 292 295
4 276 273 294 296
4 277 275 295 297
4 278 276 296 298
4 279 277 297 299
4 280 278 298 285
4 281 279 299 287
4 298 296 300 301
4 299 297 302 303
4 285 298 301 304
4 287 299 303 305
4 286 285 304 306
4 288 287 305 307
4 289 286 306 308
4 290 288 307 309
4 292 291 310 311
4 293 289 308 312
4 294 290 309 313
4 295 292 311 314
4 296 294 313 300
4 297 295 314 302
4 311 310 315 316
4 312 308 317 318
4 313 309 319 320
4 314 311 316 321
4 300 313 320 322
4 302 314 321 323
4 301 300 322 324
4 303 302 323 325
4 304 301 324 326
4 305 303 325 327
4 306 304 326 328
4 307 305 327 329
4 308 306 328 317
4 309 307 329 319
4 327 325 330 331
4 328 326 332 333
4 329 327 331 334
4 317 328 333 335
4 319 329 334 336
4 316 315 337 338
4 318 317 335 339
4 320 319 336 340
4 321 316 338 341
4 322 320 340 342
4 323 321 341 343
4 324 322 342 344
4 325 323 343 330
4 326 324 344 332
4 342 340 345 346
4 343 341 347 348
4 344 342 346 349
4 330 343 348 350
4 332 344 349 351
4 331 330 350 352
4 333 332 351 353
4 334 331 352 354
4 335 333 353 355
4 336 334 354 356
4 338 337 357 358
4 339 335 355 359
4 340 336 356 345
4 341 338 358 347
4 355 353 360 361
4 356 354 362 363
4 358 357 364 365
4 359 355 361 366
4 345 356 363 367
4 347 358 365 368
4 346 345 367 369
4 348 347 368 370
4 349 346 369 371
4 350 348 370 372
4 351 349 371 373
4 352 350 372 374
4 353 351 373 360
4 354 352 374 362
4 373 371 375 376
4 374 372 377 378
4 360 373 376 379
4 362 374 378 380
4 361 360 379 381
4 363 362 380 382
4 365 364 383 384
4 366 361 381 385
4 367 363 382 386
4 368 365 384 387
4 369 367 386 388
4 370 368 387 389
4 371 369 388 375
4 372 370 389 377
4 388 386 390 391
4 389 387 392 393
4 375 388 391 394
4 377 389 393 395
4 376 375 394 396
4 378 377 395 397
4 379 376 396 398
4 380 378 397 399
4 381 379 398 400
4 382 380 399 401
4 384 383 402 403
4 385 381 400 404
4 386 382 401 390
4 387 384 403 392
4 400 398 405 406
4 401 399 407 408
4 403 402 409 410
4 404 400 406 411
4 390 401 408 412
4 392 403 410 413
4 391 390 412 414
4 393 392 413 415
4 394 391 414 416
4 395 393 415 417
4 396 394 416 418
4 397 395 417 419
4 398 396 418 405
4 399 397 419 407
4 418 416 420 421
4 419 417 422 423
4 405 418 421 424
4 407 419 423 425
4 406 405 424 426
4 408 407 425 427
4 410 409 428 429
4 411 406 426 430
4 412 408 427 431
4 413 410 429 432
4 414 412 431 433
4 415 413 432 434
4 416 414 433 420
4 417 415 434 422
4 433 431 435 436
4 434 432 437 438
4 420 433 436 439
4 422 434 438 440
4 421 420 439 441
4 423 422 440 442
4 424 421 441 443
4 425 423 442 444
4 426 424 443 445
4 427 425 444 446
4 429 428 447 448
4 430 426 445 449
4 431 427 446 435
4 432 429 448 437
4 445 443 450 451
4 446 444 452 453
4 448 447 454 455
4 449 445 451 456
4 435 446 453 457
4 437 448 455 458
4 436 435 457 459
4 438 437 458 460
4 439 436 459 461
4 440 438 460 462
4 441 439 461 463
4 442 440 462 464
4 443 441 463 450
4 444 442 464 452
4 462 460 465 466
4 463 461 467 468
4 464 462 466 469
4 450 463 468 470
4 452 464 469 471
4 451 450 470 472
4 453 452 471 473
4 455 454 474 475
4 456 451 472 476
4 457 453 473 477
4 458 455 475 478
4 459 457 477 479
4 460 458 478 465
4 461 459 479 467
3 480 28 29
3 9 481 10
3 10 481 36
3 480 29 38
3 36 481 56
3 480 38 58
3 480 58 65
3 56 481 62
3 62 481 83
3 480 65 85
3 480 85 104
3 83 481 102
3 480 104 111
3 102 481 109
3 109 481 128
3 480 111 130
3 480 130 149
3 128 481 147
3 480 149 156
3 147 481 154
3 154 481 173
3 480 156 175
3 480 175 194
3 173 481 193
3 193 481 200
3 480 194 202
3 200 481 220
3 480 202 222
3 480 222 226
3 220 481 239
3 239 481 246
3 480 226 248
3 246 481 265
3 480 248 267
3 480 267 271
3 265 481 284
3 284 481 291
3 480 271 293
3 291 481 310
3 480 293 312
3 480 312 318
3 310 481 315
3 315 481 337
3 480 318 339
3 337 481 357
3 480 339 359
3 480 359 366
3 357 481 364
3 364 481 383
3 480 366 385
3 480 385 404
3 383 481 402
3 480 404 411
3 402 481 409
3 409 481 428
3 480 411 430
3 480 430 449
3 428 481 447
3 447 481 454
3 480 449 456
3 454 481 474
3 480 456 476
4 477 473 26 1
4 478 475 8 5
3 480 476 28
4 1 0 479 477
4 465 478 5 4
4 0 12 467 479
4 466 465 4 14
4 468 467 12 16
4 469 466 14 18
4 470 468 16 20
4 471 469 18 22
3 481 9 474
4 472 470 20 24
4 473 471 22 26
4 9 8 475 474
4 476 472 24 28
