ply
format ascii 1.0
comment Created by Blender 2.66 (sub 1) - www.blender.org, source file: ''
element vertex 20
property float x
property float y
property float z
property float nx
property float ny
property float nz
property float s
property float t
element face 5
property list uchar uint vertex_indices
end_header
1.000000 1.000000 -1.000000 0.000000 -0.000000 1.000000 0.426440 0.886025
-1.000000 1.000000 -1.000000 0.000000 -0.000000 1.000000 0.249186 0.886025
-1.000000 -1.000000 -1.000000 0.000000 -0.000000 1.000000 0.249186 0.708770
1.000000 -1.000000 -1.000000 0.000000 -0.000000 1.000000 0.426440 0.708770
1.000000 1.000000 -1.000000 -1.000000 0.000000 -0.000000 0.219324 0.218656
1.000000 -1.000000 -1.000000 -1.000000 0.000000 -0.000000 0.219324 0.107566
0.999999 -1.000001 1.000000 -1.000000 0.000000 -0.000000 0.330414 0.107566
1.000000 0.999999 1.000000 -1.000000 0.000000 -0.000000 0.330414 0.218656
1.000000 -1.000000 -1.000000 0.000000 1.000000 0.000000 0.426440 0.531411
-1.000000 -1.000000 -1.000000 0.000000 1.000000 0.000000 0.426440 0.708664
-1.000000 -1.000000 1.000000 0.000000 1.000000 0.000000 0.249186 0.708664
0.999999 -1.000001 1.000000 0.000000 1.000000 0.000000 0.249186 0.531411
-1.000000 -1.000000 -1.000000 1.000000 0.000000 0.000000 0.021391 0.151554
-1.000000 1.000000 -1.000000 1.000000 0.000000 0.000000 0.126861 0.151554
-1.000000 1.000000 1.000000 1.000000 0.000000 0.000000 0.126861 0.257024
-1.000000 -1.000000 1.000000 1.000000 0.000000 0.000000 0.021391 0.257024
-1.000000 1.000000 -1.000000 -0.000000 -1.000000 -0.000000 0.071826 0.531411
1.000000 1.000000 -1.000000 -0.000000 -1.000000 -0.000000 0.249079 0.531411
1.000000 0.999999 1.000000 -0.000000 -1.000000 -0.000000 0.249079 0.708664
-1.000000 1.000000 1.000000 -0.000000 -1.000000 -0.000000 0.071826 0.708664
4 0 1 2 3
4 4 5 6 7
4 8 9 10 11
4 12 13 14 15
4 16 17 18 19
