ply
format ascii 1.0
comment Created by Blender 2.66 (sub 1) - www.blender.org, source file: ''
element vertex 12
property float x
property float y
property float z
property float nx
property float ny
property float nz
property float s
property float t
element face 3
property list uchar uint vertex_indices
end_header
1.000000 1.000000 -1.000000 0.000000 -0.000000 1.000000 0.426440 0.886025
-1.000000 1.000000 -1.000000 0.000000 -0.000000 1.000000 0.249186 0.886025
-1.000000 -1.000000 -1.000000 0.000000 -0.000000 1.000000 0.249186 0.708770
1.000000 -1.000000 -1.000000 0.000000 -0.000000 1.000000 0.426440 0.708770
1.000000 -1.000000 -1.000000 0.000000 1.000000 0.000000 0.426440 0.531411
-1.000000 -1.000000 -1.000000 0.000000 1.000000 0.000000 0.426440 0.708664
-1.000000 -1.000000 1.000000 0.000000 1.000000 0.000000 0.249186 0.708664
0.999999 -1.000001 1.000000 0.000000 1.000000 0.000000 0.249186 0.531411
-1.000000 1.000000 -1.000000 -0.000000 -1.000000 -0.000000 0.071826 0.531411
1.000000 1.000000 -1.000000 -0.000000 -1.000000 -0.000000 0.249079 0.531411
1.000000 0.999999 1.000000 -0.000000 -1.000000 -0.000000 0.249079 0.708664
-1.000000 1.000000 1.000000 -0.000000 -1.000000 -0.000000 0.071826 0.708664
4 0 1 2 3
4 4 5 6 7
4 8 9 10 11
