ply
format ascii 1.0
comment Created by Blender 2.66 (sub 1) - www.blender.org, source file: ''
element vertex 4
property float x
property float y
property float z
property float nx
property float ny
property float nz
property float s
property float t
element face 1
property list uchar uint vertex_indices
end_header
2.939611 0.000001 -2.939612 0.000000 1.000000 0.000000 0.000100 0.000100
-2.939611 0.000001 -2.939612 0.000000 1.000000 0.000000 0.999900 0.000100
-2.939611 0.000001 2.939612 0.000000 1.000000 0.000000 0.999900 0.999900
2.939609 -0.000002 2.939612 0.000000 1.000000 0.000000 0.000100 0.999900
4 0 1 2 3
