ply
format ascii 1.0
comment Created by Blender 2.66 (sub 1) - www.blender.org, source file: ''
element vertex 256
property float x
property float y
property float z
property float nx
property float ny
property float nz
element face 128
property list uchar uint vertex_indices
end_header
0.115020 -0.924530 -0.459193 0.242958 0.000000 -0.970031
0.137413 -0.924530 -0.452996 0.290262 0.000000 -0.956938
0.137413 -1.035876 -0.452996 0.290262 0.000000 -0.956938
0.115020 -1.035876 -0.459193 0.242958 0.000000 -0.970031
0.300308 -0.924530 0.365928 0.634388 0.000000 0.773003
0.281991 -0.924530 0.380223 0.595691 0.000000 0.803186
0.281991 -1.035875 0.380223 0.595691 0.000000 0.803186
0.300308 -1.035875 0.365928 0.634388 0.000000 0.773003
-0.181155 -0.924530 0.437346 -0.382672 0.000000 0.923856
-0.202396 -0.924530 0.427931 -0.427534 0.000000 0.903989
-0.202396 -1.035875 0.427931 -0.427534 0.000000 0.903989
-0.181155 -1.035875 0.437346 -0.382672 0.000000 0.923856
-0.243367 -0.924530 -0.406031 -0.514084 0.000000 -0.857723
-0.223150 -0.924530 -0.417483 -0.471389 0.000000 -0.881893
-0.223150 -1.035876 -0.417483 -0.471389 0.000000 -0.881893
-0.243367 -1.035876 -0.406031 -0.514084 0.000000 -0.857723
0.471100 -0.924530 0.046399 0.995178 0.000000 0.097995
0.468256 -0.924530 0.069459 0.989166 0.000000 0.146702
0.468256 -1.035875 0.069459 0.989166 0.000000 0.146702
0.471100 -1.035875 0.046399 0.995178 0.000000 0.097995
-0.459194 -0.924530 -0.115022 -0.970031 0.000000 -0.242958
-0.452997 -0.924530 -0.137415 -0.956938 0.000000 -0.290262
-0.452997 -1.035875 -0.137415 -0.956938 0.000000 -0.290262
-0.459194 -1.035875 -0.115022 -0.970031 0.000000 -0.242958
0.365926 -0.924530 -0.300310 0.773003 0.000000 -0.634388
0.380221 -0.924530 -0.281993 0.803186 0.000000 -0.595691
0.380221 -1.035876 -0.281993 0.803186 0.000000 -0.595691
0.365926 -1.035876 -0.300310 0.773003 0.000000 -0.634388
0.023226 -0.924530 0.472810 0.049043 0.000000 0.998779
-0.000000 -0.924530 0.473380 0.000000 0.000000 1.000000
-0.000000 -1.035875 0.473380 0.000000 0.000000 1.000000
0.023226 -1.035875 0.472810 0.049043 0.000000 0.998779
-0.406032 -0.924530 0.243366 -0.857723 0.000000 0.514084
-0.417484 -0.924530 0.223150 -0.881893 0.000000 0.471389
-0.417484 -1.035875 0.223150 -0.881893 0.000000 0.471389
-0.406032 -1.035875 0.243366 -0.857723 0.000000 0.514084
0.046398 -0.924530 -0.471100 0.097995 0.000000 -0.995178
0.069458 -0.924530 -0.468256 0.146702 0.000000 -0.989166
0.069458 -1.035876 -0.468256 0.146702 0.000000 -0.989166
0.046398 -1.035876 -0.471100 0.097995 0.000000 -0.995178
0.350751 -0.924530 0.317903 0.740928 0.000000 0.671529
0.334729 -0.924530 0.334731 0.707083 0.000000 0.707083
0.334729 -1.035875 0.334731 0.707083 0.000000 0.707083
0.350751 -1.035875 0.317903 0.740928 0.000000 0.671529
-0.115022 -0.924530 0.459193 -0.242958 0.000000 0.970031
-0.137415 -0.924530 0.452996 -0.290262 0.000000 0.956938
-0.137415 -1.035875 0.452996 -0.290262 0.000000 0.956938
-0.115022 -1.035875 0.459193 -0.242958 0.000000 0.970031
-0.300310 -0.924530 -0.365927 -0.634388 0.000000 -0.773003
-0.281993 -0.924530 -0.380222 -0.595691 0.000000 -0.803186
-0.281993 -1.035876 -0.380222 -0.595691 0.000000 -0.803186
-0.300310 -1.035876 -0.365927 -0.634388 0.000000 -0.773003
0.472809 -0.924530 -0.023228 0.998779 0.000000 -0.049043
0.473380 -0.924530 -0.000000 1.000000 0.000000 0.000000
0.473380 -1.035875 -0.000000 1.000000 0.000000 0.000000
0.472809 -1.035875 -0.023228 0.998779 0.000000 -0.049043
-0.471101 -0.924530 -0.046399 -0.995178 0.000000 -0.097995
-0.468257 -0.924530 -0.069459 -0.989166 0.000000 -0.146702
-0.468257 -1.035875 -0.069459 -0.989166 0.000000 -0.146702
-0.471101 -1.035875 -0.046399 -0.995178 0.000000 -0.097995
0.317901 -0.924530 -0.350752 0.671529 0.000000 -0.740928
0.334729 -0.924530 -0.334731 0.707083 0.000000 -0.707083
0.334729 -1.035876 -0.334731 0.707083 0.000000 -0.707083
0.317901 -1.035876 -0.350752 0.671529 0.000000 -0.740928
0.092350 -0.924530 0.464284 0.195074 0.000000 0.980773
0.069458 -0.924530 0.468257 0.146702 0.000000 0.989166
0.069458 -1.035875 0.468257 0.146702 0.000000 0.989166
0.092350 -1.035875 0.464284 0.195074 0.000000 0.980773
-0.365928 -0.924530 0.300309 -0.773003 0.000000 0.634388
-0.380223 -0.924530 0.281992 -0.803186 0.000000 0.595691
-0.380223 -1.035875 0.281992 -0.803186 0.000000 0.595691
-0.365928 -1.035875 0.300309 -0.773003 0.000000 0.634388
-0.023229 -0.924530 -0.472809 -0.049043 0.000000 -0.998779
-0.000001 -0.924530 -0.473380 0.000000 0.000000 -1.000000
-0.000001 -1.035876 -0.473380 0.000000 0.000000 -1.000000
-0.023229 -1.035876 -0.472809 -0.049043 0.000000 -0.998779
0.393601 -0.924530 0.262996 0.831446 0.000000 0.555559
0.380222 -0.924530 0.281992 0.803186 0.000000 0.595691
0.380222 -1.035875 0.281992 0.803186 0.000000 0.595691
0.393601 -1.035875 0.262996 0.831446 0.000000 0.555559
-0.046400 -0.924530 0.471101 -0.097995 0.000000 0.995178
-0.069460 -0.924530 0.468257 -0.146702 0.000000 0.989166
-0.069460 -1.035875 0.468257 -0.146702 0.000000 0.989166
-0.046400 -1.035875 0.471101 -0.097995 0.000000 0.995178
-0.350752 -0.924530 -0.317902 -0.740928 0.000000 -0.671529
-0.334731 -0.924530 -0.334730 -0.707083 0.000000 -0.707083
-0.334731 -1.035876 -0.334730 -0.707083 0.000000 -0.707083
-0.350752 -1.035876 -0.317902 -0.740928 0.000000 -0.671529
0.464283 -0.924530 -0.092353 0.980773 0.000000 -0.195074
0.468256 -0.924530 -0.069460 0.989166 0.000000 -0.146702
0.468256 -1.035875 -0.069460 0.989166 0.000000 -0.146702
0.464283 -1.035875 -0.092353 0.980773 0.000000 -0.195074
-0.472810 -0.924530 0.023228 -0.998779 0.000000 0.049043
-0.473380 -0.924530 -0.000000 -1.000000 0.000000 0.000000
-0.473380 -1.035875 -0.000000 -1.000000 0.000000 0.000000
-0.472810 -1.035875 0.023228 -0.998779 0.000000 0.049043
0.262994 -0.924530 -0.393602 0.555559 0.000000 -0.831446
0.281990 -0.924530 -0.380223 0.595691 0.000000 -0.803186
0.281990 -1.035876 -0.380223 0.595691 0.000000 -0.803186
0.262994 -1.035876 -0.393602 0.555559 0.000000 -0.831446
0.159476 -0.924530 0.445709 0.336863 0.000000 0.941527
0.137414 -0.924530 0.452997 0.290262 0.000000 0.956938
0.137414 -1.035875 0.452997 0.290262 0.000000 0.956938
0.159476 -1.035875 0.445709 0.336863 0.000000 0.941527
-0.317903 -0.924530 0.350752 -0.671529 0.000000 0.740928
-0.334731 -0.924530 0.334730 -0.707083 0.000000 0.707083
-0.334731 -1.035875 0.334730 -0.707083 0.000000 0.707083
-0.317903 -1.035875 0.350752 -0.671529 0.000000 0.740928
-0.092353 -0.924530 -0.464284 -0.195074 0.000000 -0.980773
-0.069460 -0.924530 -0.468256 -0.146702 0.000000 -0.989166
-0.069460 -1.035876 -0.468256 -0.146702 0.000000 -0.989166
-0.092353 -1.035876 -0.464284 -0.195074 0.000000 -0.980773
0.427930 -0.924530 0.202396 0.903989 0.000000 0.427534
0.417483 -0.924530 0.223150 0.881893 0.000000 0.471389
0.417483 -1.035875 0.223150 0.881893 0.000000 0.471389
0.427930 -1.035875 0.202396 0.903989 0.000000 0.427534
-0.393601 -0.924530 -0.262996 -0.831446 0.000000 -0.555559
-0.380223 -0.924530 -0.281992 -0.803186 0.000000 -0.595691
-0.380223 -1.035876 -0.281992 -0.803186 0.000000 -0.595691
-0.393601 -1.035876 -0.262996 -0.831446 0.000000 -0.555559
0.445707 -0.924530 -0.159478 0.941527 0.000000 -0.336863
0.452996 -0.924530 -0.137416 0.956938 0.000000 -0.290262
0.452996 -1.035875 -0.137416 0.956938 0.000000 -0.290262
0.445707 -1.035875 -0.159478 0.941527 0.000000 -0.336863
-0.464284 -0.924530 0.092352 -0.980773 0.000000 0.195074
-0.468257 -0.924530 0.069459 -0.989166 0.000000 0.146702
-0.468257 -1.035875 0.069459 -0.989166 0.000000 0.146702
-0.464284 -1.035875 0.092352 -0.980773 0.000000 0.195074
0.202394 -0.924530 -0.427931 0.427534 0.000000 -0.903989
0.223148 -0.924530 -0.417484 0.471389 0.000000 -0.881893
0.223148 -1.035876 -0.417484 0.471389 0.000000 -0.881893
0.202394 -1.035876 -0.427931 0.427534 0.000000 -0.903989
0.223149 -0.924530 0.417484 0.471389 0.000000 0.881893
0.202395 -0.924530 0.427931 0.427534 0.000000 0.903989
0.202395 -1.035875 0.427931 0.427534 0.000000 0.903989
0.223149 -1.035875 0.417484 0.471389 0.000000 0.881893
-0.262996 -0.924530 0.393601 -0.555559 0.000000 0.831446
-0.281992 -0.924530 0.380223 -0.595691 0.000000 0.803186
-0.281992 -1.035875 0.380223 -0.595691 0.000000 0.803186
-0.262996 -1.035875 0.393601 -0.555559 0.000000 0.831446
-0.159478 -0.924530 -0.445708 -0.336863 0.000000 -0.941527
-0.137416 -0.924530 -0.452996 -0.290262 0.000000 -0.956938
-0.137416 -1.035876 -0.452996 -0.290262 0.000000 -0.956938
-0.159478 -1.035876 -0.445708 -0.336863 0.000000 -0.941527
0.452996 -0.924530 0.137415 0.956938 0.000000 0.290262
0.445708 -0.924530 0.159477 0.941527 0.000000 0.336863
0.445708 -1.035875 0.159477 0.941527 0.000000 0.336863
0.452996 -1.035875 0.137415 0.956938 0.000000 0.290262
-0.427931 -0.924530 -0.202396 -0.903989 0.000000 -0.427534
-0.417484 -0.924530 -0.223150 -0.881893 0.000000 -0.471389
-0.417484 -1.035875 -0.223150 -0.881893 0.000000 -0.471389
-0.427931 -1.035875 -0.202396 -0.903989 0.000000 -0.427534
0.417483 -0.924530 -0.223151 0.881893 0.000000 -0.471389
0.427929 -0.924530 -0.202397 0.903958 0.000000 -0.427534
0.427929 -1.035875 -0.202397 0.903958 0.000000 -0.427534
0.417483 -1.035875 -0.223151 0.881893 0.000000 -0.471389
-0.445708 -0.924530 0.159477 -0.941527 0.000000 0.336863
-0.452997 -0.924530 0.137415 -0.956938 0.000000 0.290262
-0.452997 -1.035875 0.137415 -0.956938 0.000000 0.290262
-0.445708 -1.035875 0.159477 -0.941527 0.000000 0.336863
0.159475 -0.924530 -0.445708 0.336863 0.000000 -0.941527
0.159475 -1.035876 -0.445708 0.336863 0.000000 -0.941527
0.262995 -0.924530 0.393602 0.555559 0.000000 0.831446
0.262995 -1.035875 0.393602 0.555559 0.000000 0.831446
-0.223150 -0.924530 0.417484 -0.471389 0.000000 0.881893
-0.223150 -1.035875 0.417484 -0.471389 0.000000 0.881893
-0.202397 -0.924530 -0.427930 -0.427534 0.000000 -0.903989
-0.202397 -1.035876 -0.427930 -0.427534 0.000000 -0.903989
0.464284 -0.924530 0.092352 0.980773 0.000000 0.195074
0.464284 -1.035875 0.092352 0.980773 0.000000 0.195074
-0.445708 -0.924530 -0.159477 -0.941527 0.000000 -0.336863
-0.445708 -1.035875 -0.159477 -0.941527 0.000000 -0.336863
0.393600 -0.924530 -0.262997 0.831446 0.000000 -0.555559
0.393600 -1.035876 -0.262997 0.831446 0.000000 -0.555559
-0.427931 -0.924530 0.202396 -0.903989 0.000000 0.427534
-0.427931 -1.035875 0.202396 -0.903989 0.000000 0.427534
0.092350 -0.924530 -0.464284 0.195074 0.000000 -0.980773
0.092350 -1.035876 -0.464284 0.195074 0.000000 -0.980773
0.317902 -0.924530 0.350752 0.671529 0.000000 0.740928
0.317902 -1.035875 0.350752 0.671529 0.000000 0.740928
-0.159477 -0.924530 0.445708 -0.336863 0.000000 0.941527
-0.159477 -1.035875 0.445708 -0.336863 0.000000 0.941527
-0.262996 -0.924530 -0.393601 -0.555559 0.000000 -0.831446
-0.262996 -1.035876 -0.393601 -0.555559 0.000000 -0.831446
0.472809 -0.924530 0.023227 0.998779 0.000000 0.049043
0.472809 -1.035875 0.023227 0.998779 0.000000 0.049043
-0.464284 -0.924530 -0.092352 -0.980773 0.000000 -0.195074
-0.464284 -1.035875 -0.092352 -0.980773 0.000000 -0.195074
0.350750 -0.924530 -0.317904 0.740928 0.000000 -0.671560
0.350750 -1.035876 -0.317904 0.740928 0.000000 -0.671560
0.046398 -0.924530 0.471101 0.097995 0.000000 0.995178
0.046398 -1.035875 0.471101 0.097995 0.000000 0.995178
-0.393601 -0.924530 0.262996 -0.831446 0.000000 0.555559
-0.393601 -1.035875 0.262996 -0.831446 0.000000 0.555559
0.023226 -0.924530 -0.472810 0.049043 0.000000 -0.998779
0.023226 -1.035876 -0.472810 0.049043 0.000000 -0.998779
0.365927 -0.924530 0.300309 0.773003 0.000000 0.634388
0.365927 -1.035875 0.300309 0.773003 0.000000 0.634388
-0.092352 -0.924530 0.464284 -0.195074 0.000000 0.980773
-0.092352 -1.035875 0.464284 -0.195074 0.000000 0.980773
-0.317903 -0.924530 -0.350751 -0.671529 0.000000 -0.740928
-0.317903 -1.035876 -0.350751 -0.671529 0.000000 -0.740928
0.471100 -0.924530 -0.046400 0.995178 0.000000 -0.097995
0.471100 -1.035875 -0.046400 0.995178 0.000000 -0.097995
-0.472810 -0.924530 -0.023228 -0.998779 0.000000 -0.049043
-0.472810 -1.035875 -0.023228 -0.998779 0.000000 -0.049043
0.300307 -0.924530 -0.365928 0.634388 0.000000 -0.773003
0.300307 -1.035876 -0.365928 0.634388 0.000000 -0.773003
0.115020 -0.924530 0.459194 0.242958 0.000000 0.970031
0.115020 -1.035875 0.459194 0.242958 0.000000 0.970031
-0.350752 -0.924530 0.317903 -0.740928 0.000000 0.671529
-0.350752 -1.035875 0.317903 -0.740928 0.000000 0.671529
-0.046400 -0.924530 -0.471100 -0.097995 0.000000 -0.995178
-0.046400 -1.035876 -0.471100 -0.097995 0.000000 -0.995178
0.406031 -0.924530 0.243366 0.857723 0.000000 0.514084
0.406031 -1.035875 0.243366 0.857723 0.000000 0.514084
-0.023228 -0.924530 0.472810 -0.049043 0.000000 0.998779
-0.023228 -1.035875 0.472810 -0.049043 0.000000 0.998779
-0.365928 -0.924530 -0.300309 -0.773003 0.000000 -0.634388
-0.365928 -1.035876 -0.300309 -0.773003 0.000000 -0.634388
0.459193 -0.924530 -0.115023 0.970000 0.000000 -0.242958
0.459193 -1.035875 -0.115023 0.970000 0.000000 -0.242958
-0.471101 -0.924530 0.046399 -0.995178 0.000000 0.097995
-0.471101 -1.035875 0.046399 -0.995178 0.000000 0.097995
0.243364 -0.924530 -0.406032 0.514084 0.000000 -0.857723
0.243364 -1.035876 -0.406032 0.514084 0.000000 -0.857723
0.181153 -0.924530 0.437347 0.382672 0.000000 0.923856
0.181153 -1.035875 0.437347 0.382672 0.000000 0.923856
-0.300309 -0.924530 0.365928 -0.634388 0.000000 0.773003
-0.300309 -1.035875 0.365928 -0.634388 0.000000 0.773003
-0.115023 -0.924530 -0.459193 -0.242958 0.000000 -0.970031
-0.115023 -1.035876 -0.459193 -0.242958 0.000000 -0.970031
0.437346 -0.924530 0.181155 0.923856 0.000000 0.382672
0.437346 -1.035875 0.181155 0.923856 0.000000 0.382672
-0.406032 -0.924530 -0.243366 -0.857723 0.000000 -0.514084
-0.406032 -1.035876 -0.243366 -0.857723 0.000000 -0.514084
0.437345 -0.924530 -0.181156 0.923856 0.000000 -0.382672
0.437345 -1.035875 -0.181156 0.923856 0.000000 -0.382672
-0.459194 -0.924530 0.115022 -0.970031 0.000000 0.242958
-0.459194 -1.035875 0.115022 -0.970031 0.000000 0.242958
0.181153 -0.924530 -0.437346 0.382672 0.000000 -0.923856
0.181153 -1.035876 -0.437346 0.382672 0.000000 -0.923856
0.243365 -0.924530 0.406032 0.514084 0.000000 0.857723
0.243365 -1.035875 0.406032 0.514084 0.000000 0.857723
-0.243366 -0.924530 0.406032 -0.514084 0.000000 0.857723
-0.243366 -1.035875 0.406032 -0.514084 0.000000 0.857723
-0.181156 -0.924530 -0.437346 -0.382672 0.000000 -0.923856
-0.181156 -1.035876 -0.437346 -0.382672 0.000000 -0.923856
0.459193 -0.924530 0.115022 0.970031 0.000000 0.242958
0.459193 -1.035875 0.115022 0.970031 0.000000 0.242958
-0.437346 -0.924530 -0.181155 -0.923856 0.000000 -0.382672
-0.437346 -1.035875 -0.181155 -0.923856 0.000000 -0.382672
0.406030 -0.924530 -0.243367 0.857723 0.000000 -0.514084
0.406030 -1.035876 -0.243367 0.857723 0.000000 -0.514084
-0.437346 -0.924530 0.181155 -0.923856 0.000000 0.382672
-0.437346 -1.035875 0.181155 -0.923856 0.000000 0.382672
4 0 1 2 3
4 4 5 6 7
4 8 9 10 11
4 12 13 14 15
4 16 17 18 19
4 20 21 22 23
4 24 25 26 27
4 28 29 30 31
4 32 33 34 35
4 36 37 38 39
4 40 41 42 43
4 44 45 46 47
4 48 49 50 51
4 52 53 54 55
4 56 57 58 59
4 60 61 62 63
4 64 65 66 67
4 68 69 70 71
4 72 73 74 75
4 76 77 78 79
4 80 81 82 83
4 84 85 86 87
4 88 89 90 91
4 92 93 94 95
4 96 97 98 99
4 100 101 102 103
4 104 105 106 107
4 108 109 110 111
4 112 113 114 115
4 116 117 118 119
4 120 121 122 123
4 124 125 126 127
4 128 129 130 131
4 132 133 134 135
4 136 137 138 139
4 140 141 142 143
4 144 145 146 147
4 148 149 150 151
4 152 153 154 155
4 156 157 158 159
4 1 160 161 2
4 5 162 163 6
4 9 164 165 10
4 13 166 167 14
4 17 168 169 18
4 21 170 171 22
4 25 172 173 26
4 33 174 175 34
4 37 176 177 38
4 41 178 179 42
4 45 180 181 46
4 49 182 183 50
4 53 184 185 54
4 57 186 187 58
4 61 188 189 62
4 65 190 191 66
4 69 192 193 70
4 73 194 195 74
4 77 196 197 78
4 81 198 199 82
4 85 200 201 86
4 89 202 203 90
4 93 204 205 94
4 97 206 207 98
4 101 208 209 102
4 105 210 211 106
4 109 212 213 110
4 113 214 215 114
4 29 216 217 30
4 117 218 219 118
4 121 220 221 122
4 125 222 223 126
4 129 224 225 130
4 133 226 227 134
4 137 228 229 138
4 141 230 231 142
4 145 232 233 146
4 149 234 235 150
4 153 236 237 154
4 157 238 239 158
4 160 240 241 161
4 162 242 243 163
4 164 244 245 165
4 166 246 247 167
4 168 248 249 169
4 170 250 251 171
4 172 252 253 173
4 174 254 255 175
4 176 0 3 177
4 178 4 7 179
4 180 8 11 181
4 182 12 15 183
4 184 16 19 185
4 186 20 23 187
4 188 24 27 189
4 190 28 31 191
4 192 32 35 193
4 194 36 39 195
4 196 40 43 197
4 198 44 47 199
4 200 48 51 201
4 202 52 55 203
4 204 56 59 205
4 206 60 63 207
4 208 64 67 209
4 210 68 71 211
4 212 72 75 213
4 214 76 79 215
4 216 80 83 217
4 218 84 87 219
4 220 88 91 221
4 222 92 95 223
4 224 96 99 225
4 226 100 103 227
4 228 104 107 229
4 230 108 111 231
4 232 112 115 233
4 234 116 119 235
4 236 120 123 237
4 238 124 127 239
4 240 128 131 241
4 242 132 135 243
4 244 136 139 245
4 246 140 143 247
4 248 144 147 249
4 250 148 151 251
4 252 152 155 253
4 254 156 159 255
