ply
format ascii 1.0
comment Created by Blender 2.66 (sub 1) - www.blender.org, source file: ''
element vertex 24
property float x
property float y
property float z
property float nx
property float ny
property float nz
element face 6
property list uchar uint vertex_indices
end_header
0.275474 -0.437351 -0.635679 -0.984051 0.000000 -0.177888
0.275474 -0.998543 -0.635679 -0.984051 0.000000 -0.177888
0.175645 -0.998543 -0.083437 -0.984051 0.000000 -0.177888
0.175645 -0.437351 -0.083437 -0.984051 0.000000 -0.177888
0.175645 -0.437351 -0.083437 0.000000 1.000000 -0.000000
0.727886 -0.437351 0.016392 0.000000 1.000000 -0.000000
0.827716 -0.437351 -0.535850 0.000000 1.000000 -0.000000
0.275474 -0.437351 -0.635679 0.000000 1.000000 -0.000000
0.727886 -0.437351 0.016392 0.984051 0.000000 0.177888
0.727886 -0.998543 0.016392 0.984051 0.000000 0.177888
0.827716 -0.998543 -0.535850 0.984051 0.000000 0.177888
0.827716 -0.437351 -0.535850 0.984051 0.000000 0.177888
0.275474 -0.998543 -0.635679 0.000000 -1.000000 -0.000000
0.827716 -0.998543 -0.535850 0.000000 -1.000000 -0.000000
0.727886 -0.998543 0.016392 0.000000 -1.000000 -0.000000
0.175645 -0.998543 -0.083437 0.000000 -1.000000 -0.000000
0.275474 -0.998543 -0.635679 0.177888 0.000000 -0.984051
0.275474 -0.437351 -0.635679 0.177888 0.000000 -0.984051
0.827716 -0.437351 -0.535850 0.177888 0.000000 -0.984051
0.827716 -0.998543 -0.535850 0.177888 0.000000 -0.984051
0.727886 -0.998543 0.016392 -0.177888 0.000000 0.984051
0.727886 -0.437351 0.016392 -0.177888 0.000000 0.984051
0.175645 -0.437351 -0.083437 -0.177888 0.000000 0.984051
0.175645 -0.998543 -0.083437 -0.177888 0.000000 0.984051
4 0 1 2 3
4 4 5 6 7
4 8 9 10 11
4 12 13 14 15
4 16 17 18 19
4 20 21 22 23
