ply
format ascii 1.0
comment Created by Blender 2.66 (sub 1) - www.blender.org, source file: ''
element vertex 24
property float x
property float y
property float z
property float nx
property float ny
property float nz
element face 6
property list uchar uint vertex_indices
end_header
-0.923684 0.709540 -0.058677 -0.918546 0.000000 0.395315
-0.923684 -1.007893 -0.058677 -0.918546 0.000000 0.395315
-0.658576 -1.007893 0.557323 -0.918546 0.000000 0.395315
-0.658576 0.709540 0.557323 -0.918546 0.000000 0.395315
-0.658576 0.709540 0.557323 0.000000 1.000000 -0.000000
-0.042575 0.709540 0.292214 0.000000 1.000000 -0.000000
-0.307684 0.709540 -0.323786 0.000000 1.000000 -0.000000
-0.923684 0.709540 -0.058677 0.000000 1.000000 -0.000000
-0.042575 0.709540 0.292214 0.918545 0.000000 -0.395316
-0.042575 -1.007893 0.292214 0.918545 0.000000 -0.395316
-0.307684 -1.007893 -0.323786 0.918545 0.000000 -0.395316
-0.307684 0.709540 -0.323786 0.918545 0.000000 -0.395316
-0.923684 -1.007893 -0.058677 0.000000 -1.000000 -0.000000
-0.307684 -1.007893 -0.323786 0.000000 -1.000000 -0.000000
-0.042575 -1.007893 0.292214 0.000000 -1.000000 -0.000000
-0.658576 -1.007893 0.557323 0.000000 -1.000000 -0.000000
-0.923684 -1.007893 -0.058677 -0.395316 0.000000 -0.918545
-0.923684 0.709540 -0.058677 -0.395316 0.000000 -0.918545
-0.307684 0.709540 -0.323786 -0.395316 0.000000 -0.918545
-0.307684 -1.007893 -0.323786 -0.395316 0.000000 -0.918545
-0.042575 -1.007893 0.292214 0.395315 0.000000 0.918545
-0.042575 0.709540 0.292214 0.395315 0.000000 0.918545
-0.658576 0.709540 0.557323 0.395315 0.000000 0.918545
-0.658576 -1.007893 0.557323 0.395315 0.000000 0.918545
4 0 1 2 3
4 4 5 6 7
4 8 9 10 11
4 12 13 14 15
4 16 17 18 19
4 20 21 22 23
